<mxfile host="app.diagrams.net" agent="Mozilla/5.0 (Windows NT 10.0; Win64; x64) AppleWebKit/537.36 (KHTML, like Gecko) Chrome/135.0.0.0 Safari/537.36" version="26.2.14">
  <diagram name="Page-1" id="InMVsJ1ksLA2OOm9I_7y">
    <mxGraphModel dx="928" dy="516" grid="1" gridSize="10" guides="1" tooltips="1" connect="1" arrows="1" fold="1" page="1" pageScale="1" pageWidth="827" pageHeight="1169" math="0" shadow="0">
      <root>
        <mxCell id="0" />
        <mxCell id="1" parent="0" />
        <mxCell id="prkrqy2KbLawxgQCvkoc-1" value="" style="html=1;verticalLabelPosition=bottom;align=center;labelBackgroundColor=#ffffff;verticalAlign=top;strokeWidth=2;strokeColor=#0080F0;shadow=0;dashed=0;shape=mxgraph.ios7.icons.user;" vertex="1" parent="1">
          <mxGeometry x="140" y="178.5" width="60" height="60" as="geometry" />
        </mxCell>
        <mxCell id="prkrqy2KbLawxgQCvkoc-2" value="" style="shape=image;html=1;verticalAlign=top;verticalLabelPosition=bottom;labelBackgroundColor=#ffffff;imageAspect=0;aspect=fixed;image=https://cdn1.iconfinder.com/data/icons/unicons-line-vol-1/24/brain-128.png" vertex="1" parent="1">
          <mxGeometry x="380" y="160" width="128" height="128" as="geometry" />
        </mxCell>
        <mxCell id="prkrqy2KbLawxgQCvkoc-3" value="" style="image;aspect=fixed;perimeter=ellipsePerimeter;html=1;align=center;shadow=0;dashed=0;spacingTop=3;image=img/lib/active_directory/database.svg;" vertex="1" parent="1">
          <mxGeometry x="539.7" y="277" width="50" height="37" as="geometry" />
        </mxCell>
        <mxCell id="prkrqy2KbLawxgQCvkoc-6" value="" style="verticalLabelPosition=bottom;html=1;verticalAlign=top;align=center;strokeColor=none;fillColor=#00BEF2;shape=mxgraph.azure.cloud_services_configuration_file;pointerEvents=1;" vertex="1" parent="1">
          <mxGeometry x="411.25" y="90" width="47.5" height="50" as="geometry" />
        </mxCell>
        <mxCell id="prkrqy2KbLawxgQCvkoc-7" value="" style="html=1;verticalLabelPosition=bottom;align=center;labelBackgroundColor=#ffffff;verticalAlign=top;strokeWidth=2;strokeColor=#0080F0;shadow=0;dashed=0;shape=mxgraph.ios7.icons.chat;" vertex="1" parent="1">
          <mxGeometry x="414" y="314" width="50" height="42" as="geometry" />
        </mxCell>
        <mxCell id="prkrqy2KbLawxgQCvkoc-8" value="" style="html=1;verticalLabelPosition=bottom;align=center;labelBackgroundColor=#ffffff;verticalAlign=top;strokeWidth=2;strokeColor=#0080F0;shadow=0;dashed=0;shape=mxgraph.ios7.icons.tools;pointerEvents=1" vertex="1" parent="1">
          <mxGeometry x="610" y="160.3" width="29.7" height="29.7" as="geometry" />
        </mxCell>
        <mxCell id="prkrqy2KbLawxgQCvkoc-9" value="" style="verticalLabelPosition=bottom;html=1;verticalAlign=top;align=center;strokeColor=none;fillColor=#00BEF2;shape=mxgraph.azure.code_file;pointerEvents=1;" vertex="1" parent="1">
          <mxGeometry x="529.7" y="119.7" width="70" height="70.3" as="geometry" />
        </mxCell>
        <mxCell id="prkrqy2KbLawxgQCvkoc-10" value="Doctor / Patient" style="text;html=1;align=center;verticalAlign=middle;resizable=0;points=[];autosize=1;strokeColor=none;fillColor=none;fontColor=light-dark(#0080f0, #ededed);" vertex="1" parent="1">
          <mxGeometry x="115" y="238.5" width="110" height="30" as="geometry" />
        </mxCell>
        <mxCell id="prkrqy2KbLawxgQCvkoc-12" value="" style="html=1;shadow=0;dashed=0;align=center;verticalAlign=middle;shape=mxgraph.arrows2.twoWayArrow;dy=0.65;dx=22;strokeColor=light-dark(#0080f0, #ededed);" vertex="1" parent="1">
          <mxGeometry x="220" y="190" width="150" height="60" as="geometry" />
        </mxCell>
        <mxCell id="prkrqy2KbLawxgQCvkoc-14" value="UserMessage&lt;span style=&quot;color: rgba(0, 0, 0, 0); font-family: monospace; font-size: 0px; text-align: start;&quot;&gt;%3CmxGraphModel%3E%3Croot%3E%3CmxCell%20id%3D%220%22%2F%3E%3CmxCell%20id%3D%221%22%20parent%3D%220%22%2F%3E%3CmxCell%20id%3D%222%22%20value%3D%22Doctor%20%2F%20Patient%22%20style%3D%22text%3Bhtml%3D1%3Balign%3Dcenter%3BverticalAlign%3Dmiddle%3Bresizable%3D0%3Bpoints%3D%5B%5D%3Bautosize%3D1%3BstrokeColor%3Dnone%3BfillColor%3Dnone%3BfontColor%3Dlight-dark(%230080f0%2C%20%23ededed)%3B%22%20vertex%3D%221%22%20parent%3D%221%22%3E%3CmxGeometry%20x%3D%22115%22%20y%3D%22238.5%22%20width%3D%22110%22%20height%3D%2230%22%20as%3D%22geometry%22%2F%3E%3C%2FmxCell%3E%3C%2Froot%3E%3C%2FmxGraphModel%3E&lt;/span&gt;" style="text;html=1;align=center;verticalAlign=middle;resizable=0;points=[];autosize=1;strokeColor=none;fillColor=none;fontColor=light-dark(#0080f0, #ededed);" vertex="1" parent="1">
          <mxGeometry x="242.5" y="178.5" width="100" height="30" as="geometry" />
        </mxCell>
        <mxCell id="prkrqy2KbLawxgQCvkoc-15" value="AiMessage" style="text;html=1;align=center;verticalAlign=middle;resizable=0;points=[];autosize=1;strokeColor=none;fillColor=none;fontColor=light-dark(#0080f0, #ededed);" vertex="1" parent="1">
          <mxGeometry x="252.5" y="230" width="80" height="30" as="geometry" />
        </mxCell>
        <mxCell id="prkrqy2KbLawxgQCvkoc-16" value="SystemMessage&lt;div&gt;(Instruction)&lt;/div&gt;" style="text;html=1;align=center;verticalAlign=middle;resizable=0;points=[];autosize=1;strokeColor=none;fillColor=none;fontColor=light-dark(#0080f0, #ededed);" vertex="1" parent="1">
          <mxGeometry x="380" y="50" width="110" height="40" as="geometry" />
        </mxCell>
        <mxCell id="prkrqy2KbLawxgQCvkoc-17" value="ChatMemory" style="text;html=1;align=center;verticalAlign=middle;resizable=0;points=[];autosize=1;strokeColor=none;fillColor=none;fontColor=light-dark(#0080f0, #ededed);" vertex="1" parent="1">
          <mxGeometry x="390" y="350" width="90" height="30" as="geometry" />
        </mxCell>
        <mxCell id="prkrqy2KbLawxgQCvkoc-18" value="Tool&lt;div&gt;(function calling)&lt;/div&gt;" style="text;html=1;align=center;verticalAlign=middle;resizable=0;points=[];autosize=1;strokeColor=none;fillColor=none;fontColor=light-dark(#0080f0, #ededed);" vertex="1" parent="1">
          <mxGeometry x="519.7" y="188.5" width="110" height="40" as="geometry" />
        </mxCell>
        <mxCell id="prkrqy2KbLawxgQCvkoc-19" value="Database" style="text;html=1;align=center;verticalAlign=middle;resizable=0;points=[];autosize=1;strokeColor=none;fillColor=none;fontColor=light-dark(#0080f0, #ededed);" vertex="1" parent="1">
          <mxGeometry x="529.7" y="310" width="70" height="30" as="geometry" />
        </mxCell>
        <mxCell id="prkrqy2KbLawxgQCvkoc-26" value="" style="shape=doubleArrow;whiteSpace=wrap;html=1;strokeColor=light-dark(#00bef2, #ededed);rotation=30;fillColor=light-dark(#00bef2, #ededed);" vertex="1" parent="1">
          <mxGeometry x="490.31" y="251.82" width="39.7" height="35" as="geometry" />
        </mxCell>
        <mxCell id="prkrqy2KbLawxgQCvkoc-27" value="" style="shape=doubleArrow;whiteSpace=wrap;html=1;strokeColor=light-dark(#00bef2, #ededed);rotation=90;fillColor=light-dark(#00bef2, #ededed);" vertex="1" parent="1">
          <mxGeometry x="426.5" y="280" width="25" height="30" as="geometry" />
        </mxCell>
        <mxCell id="prkrqy2KbLawxgQCvkoc-28" value="" style="shape=doubleArrow;whiteSpace=wrap;html=1;strokeColor=light-dark(#00bef2, #ededed);rotation=90;fillColor=light-dark(#00bef2, #ededed);" vertex="1" parent="1">
          <mxGeometry x="422.5" y="139.85" width="25" height="30" as="geometry" />
        </mxCell>
        <mxCell id="prkrqy2KbLawxgQCvkoc-29" value="" style="shape=doubleArrow;whiteSpace=wrap;html=1;strokeColor=light-dark(#00bef2, #ededed);direction=south;rotation=45;fillColor=light-dark(#00bef2, #ededed);" vertex="1" parent="1">
          <mxGeometry x="490" y="169.85" width="35" height="35" as="geometry" />
        </mxCell>
        <mxCell id="prkrqy2KbLawxgQCvkoc-33" value="" style="shape=image;verticalLabelPosition=bottom;labelBackgroundColor=default;verticalAlign=top;aspect=fixed;imageAspect=0;image=data:image/png,iVBORw0KGgoAAAANSUhEUgAAAMgAAADICAIAAAAiOjnJAACAAElEQVR4nOz9CbRl6XUXhu+9v++Md3rvvrGquuaeu9Wa3JJsSbYl25KNPAljW2CM/yzMnxCIswgLCxNWDMlCEAgEFnEgsZNgHGIMNsTxhG0JCw2R6FZL6rmru2uuevNw53PON+yddc6599XrllgM7lJXl2qvqnr33ffqvXvP9zt7//asRYQFCAEE7sgd+Q+XA7zU2MH60exryMIgB0/KHXTdkd+nVGBCwinU5A6q7shrIhWKpDSFhz6/I3fkNRARoOmj1/ul3JHbTOj1fgF35PaUO8C6I6+9IOAdYN2RmyFyB1h35KbIFFj4er+OO3KbyR2v8I7cFLljCu/ITRH9er+AO/KVIgAoKJUdEZzylDcYW7mjsW49EShRxQIi1eM3JFO5A6xbTUSQgcXna27/cfET4PqU3mDguuMV3npS6Sg/OEdYyODLINmhdO7Bn1tdkJlf79dwRw6LVHYQ2OyJ71HQRd0BqstPUBgBEV9d/XTLCd4B1q0nFa+qHogfi9kGP0IxUh+TSjA5hToFQUS8ZbF1A1hvTIL4tRYU4Rl9KNXGK861MmDTv78/KS2fsN2XyXkidXA2WCozYFHUegTgVgfWnXDDf7hU3j8xMGBpnPDgSaw+Msyem96k/4mnzsQlfc8uK1JVybgqb3+pAhC1qSz/Tm3j7+cX3VS5E3n/d8rsuKZ8GcsjF2QB4UPPH5R0e+GsfjzTJP+JFxW5xC2wASAB4hJbVBIr8QIKk5MISHWI6xY+tjsa66vLVB2JHLJDpSF0w2fNaK959FsPPLVajbjBUzzeUMe+syrxFgGkimYL/MdqFJESviCkqh+OIM5hDHoOg3mgEP3Im81SN+o5wFCV3/3av/3fv9wJN8CUbE65TK2cKpaDQiVILEtBIr7Ytht/b/y5PxNEizIlWQzCYvfM9X8+/sJPqblHgMH1r+3/+kelGMghi/gfdXnrUDuld/tSXUWSnKbm/RQfRRWDH4jbRZ6gH0GxjuIq5XkrKq47GmsqjFWcuzqoKRTYZhd/0Zz7v8J3/O3J2u/g5BM0uODlLcH8fSDM2XW7+Qnofxr2H8/gdProz7itlyZPf1Quflzf9xEMWwAsFe1CKrH6H+YeVd/CpV9Iug2th6HSfLXaQwAvDqskDwIxePEj0vO3ZpT769ErxNrBq9vfpsy77ilhn10E1dVhxw4uFF/8C8HGx0ftb8KA0kVAb/fPZ90P/SLk1/nqP8bhY1qK0dCauz6SNs7A8z8XDJ+hKMjab4vf+3/YjRf8tcddf6PzBz6mdFKaNJxmZ+TAzr76RUkNH+/GUGxAuISqWb68A49ApFRXrk+z7/fUoHDlFqzW/Hr0Cmta7UVqdqSISgXBInZr8uRf9623tO75yPDp/zHc+l+x17NuMT2zSjTJXnw+D9/cfPO73Bd+JFB9xYUvYB8ejI7e17jwT7XfASIVxHvrGscT/z/f04hYR0vh+34GIPDsSx+OD72CKshZAoYPAhdTy1m+KIpBdZDiA1RNU4cg4LMbIEJEuHVjkF93AVKcRh/d/uM/23jTD4fpAjAXvS+bL/4EHP2h5J4/kT/3D8PBL9n9dWvb8Vu/Bccvjp56Vtqng0aaRhkox67w/Yk5t60Xw7BRkjESXWxav+WSRcS4xGphg/7yd2iLym8CCas2RovYPBMcfVty9htRpSW8pvF0wVdELWaNedNIFcx8CBa7i75P9f+ssOgxofAI3HoBra+7AClWRo/BjT79VyFYbrzzJxTCZO2T8uyf8/Hp5N3/KH/+f9P9X0e/bTId3P02Gl3Inn8JxhKdXNRH70Zl/e5GcWUNWUV3NUQTeof9wr7YI0cUUPmzEwQdQGeOum2IQlEizgJ7EAd5wRtFMWjou787+pY/r9J5VIKMr+pOrw9CZix+qrGcheIKYUW6Zuhj1YJgudZd0/d3a8jXG7AqCs08fPrvusf+fuOHP6ubR/O13/PPflS7HX7rz/n+y2r0W2Gn5XZfoM6KmH0cj93uSJ98AOdW0Q7RDIr160G7jbEuL1hu+eoaXB9jIxInnFkUpBCxk8h8Uwgxz6A/kj0jg6KwAp3jvHifJB0FgSmo9T3/dTh3TAiQ6+t/CBZ4g/9NIx1isbiGUAcypmfFmEC0CtXkjRkVuyWw9XXFsUQqwp6v/Rs/fEqOvIcaK7b3nH3hr6cdyYb3oh3g4DfD498EvU/rZixmA/IclIQPfJNEc1SsCXshCo+eBCGxA8nHPM6VirAlXDjwjkCEGBzK1oB3R9DW9vq4uGIYgRqlDuNmW8iL9T6cp9NvAeFSwzFWaaLq1VWsCWvFChVgeKaLUEuwKK6P4niqzZhkwmZdghVAXUXjbwlU1fL1orGwOkZww53HPpbwBrS/PXnww6PP/Xhzyfmrj41bHwr4qeTYQ95aMhfAjbkYl8pn/lEJWmiug82QM8CIhRGFdQhmDLsbNCy8F//ygPscHk2xHWKoINQ2IHd14AHDlYaKNDgBz+hdiQrnsHC+P5nseN99OHjzR9rf+Ecobh3w91eeRYUVQuQbrmRdCAicgx8CZyXlio4ChrdO9vDrqLoBq7DS4Is/Ex5v5f/qbyTf9atu+3fj4AkZXZS1iz5pBm2UaA4VgsvAWkaNjdMYrYjdhnyXTB+QJO6W2osiMHti9sU7v73nn93DxW5wskulymJRyP0Jrw8hKM0uWhHrwXtgX8ULRCYeJk5ZD2RJKYnCkT4WvPsnm+/5o9WIFql4+43g6qyCFGt4VZZTZugrfyL4Magm3mLA0gePbmuNVZ4ET9aQr6pCF/2s02i7y1/AxVjyPnUbECggQjaiNFphjECHoBtg1mSyDRRz6wwGDdRLKIlgjmaH0Lpr27Ll6BvvD1otKAyz5cLC5X3u5dhU1A1QoXjGwvtJIWuj4vzI9T0IUBLSydNw15skmCczCvvX5RMf2/zCv1r6M/9QR41ZgK2WOi2IpaX0pQn0WIfhZikTFQDOHw533SLy9aCxqtwdwfALfzM5No+7v7P72WvJu38sjZ6C7ArkW4BeFIJ3EMRAAdZcTIdAkbcMc48GEYndB1oRFrTb4jex2OStbeaAjh5Fl2M+EVFgmfsTZYELg96CF/FQKr/MFJu53S8wIpWSRMRaWaUkaIRLZ6L2aWcawYk3BasPcedU2OpCXSchWEdxa1s41Vt4kN2eIYkOGD7iDXX1OoPs64W8lwfhMsjPkb8P811KEhl8HFaW0Q0liAQsmAlpxdE8cAGYis9AmCXA1fdp3gKzB+zEXEDJ2Odo94QZOgtKe8q2xAEygQP2QEkkJCRIE2DjxHqXixtZUaKWFOoatI7YxYzoxnhtG4IvhorwCkxMBPd8H73vL+rOKkzHlbESYnHsBqgbQAnUSaLawMg0/zMTNWVheGPC3usoXxfAQoBs4/F0viHFLqKXnZfiR74B3C4qxeyh0tmSLBJpoRjCVR4+D5hQ913KXQe3D3Yfix6AEimIPaPCoAOaxe6L9yAEE4d56dGRFzCCg0Jyxyy+EdFKK1RddOL2R8V2HyYGA1AlG6r6upzIMPMZI3NpOPv/Z3buU+o7/0r6yHdXCgsZnB+dI7ClbYxWMVqtMkM8i0J4YINcVAosYIqF4iqm//qbxdseWNNwI+99CRMFfiAg4SJROg/5dQYg4pJvJ11SHQYQ0lUS2ND8e8ldAzeWYgeLXp1JLM+LIgg64C1yXpWgA3svMUgCJML7LGODIqxrleF46NgBsxN2uhM7xdY6m0OiAUOQmKEB0NfueqmY0OdyP9rH//H45ccXv/8vKRU4n5FkSIoQpdgoHdv4SIUtB36EbKl8WaU9ZHHgJoC6Dpm+7krrtibvs+JxAobsRY6FwAkqvbICdkjiBEkEMQgxmGOfg3iIF8HtUfMs8QbyRMwe5r06VikEQkqCJngDPi//iBPFELAAo0feU7zDLoPC2tJDTDUnyhoonHHOKmfJMgphUFL6oi8BS6BQpUKp1yd1fi10SaqDNh55S/d9f8qM96i1DC6vMjgCwogkZgN0W1RahfJ9XUVaxfu55loMrnR/pSoVrBna66TA9OwIbkupKk3AOzvE7ALPHydCoCBeXQY3FNEQnka3w8qCL9D2QSfiJ+CGlLTR99gNMd8VAdRNAQ/eAkVoC+AcuEAuFQzbDKIAJ+BHgKLlWEMrHYAU42Jrf2KDxKdIum1GI7/f16VyYeUwCFAtiQflxKuBU/tWB1YtOLI+s2HSOT66/Hj7vvfPkCEsUpXesEJ0xRqmZyvSHmAVF5VSxXqoQquA8VRL1NZymut+HbTXba2xapvR/7IfXYBsG+Uoc10cVfIqUXMlz2aoNNOYwpgByfRYJ2A2Sgqc75UXJZoTTNDsCKkSf8zCXthRPuEil5x5P5coxYVuybct2zyf5G7dyWiuhYEq2ZMTi0rSJFQuMi4WcRZD5wLlSl9vWWNX8baFQYndmB/Pf3un/ad/YZpBVAEL1xlFqP1EN6j1rmDLT8FTlSWKAfCAjfJFmH1hQ9ESUkw3qie+pti6vTlWdcl7z0K2hm6CPgMiYI8mh9Kj0ygZ+DGYEaLygSJ2KCJiSobuMhKRIC3Pw/fEW9EBeS/eYV5AVrheBrtGkhDnWxinPDGe0WrKYr0zH05Qs1LG+jwrrDHgQGFgAsiQQktRbmNPEbkQPDhwTGo+UKTUTkGjIkrOD//BH6Y/+8vx0kmkSErD5utZDghYvkI2QCnWHYilzcMqm5NUPDDj8YsKWQDZ7qv2m2YR1tdJY92uggSSXYJ8W5yDYgRKg2d0zk8sdYk5I5OBdRypEkClNrLKFeVZoi9Vl3jkCbiiSttZKRwMJjwpYKOAMfN8hM2UHfq9sfdilNpv6K1WU5IGao2IioXCwAfGjQs7Qg/o2eoA0rbqMMeGI1co5tj6GLVuMpDghg+2HeHL+3/3hxb+y18Kl08KRSBFpZl8bRkPCrdmD6a1iojIxSbhNCQhflhqLxUQ1z7o4Yn/N11uc2CVNqLYVPlFhhDzAZT6wTOw9HJoZhAq2R1IS5VI8gLWMNuSJmslFAl74qpTFKuAt7OyNmYnsF/IwDMpiRrE2vVGjjkP9fpiuLu0lKQNpUPL6L23bD1BAd4nUSE0GeVGlBifkh8G3OpAKmHQz6KBDftZJ4nixSZ1vdm2dhAnp9516WN/6ORHfyFo1iyqouCCIAooKK1epauq53jaGVRVQdxoLqpmYpfEHgSJ6yHZ+LVqvbjtgQVs89BteyEZjjFGsSxKYGLYGtQh9wrVTNFZtE7GQ1BKIgUsVTShPLzS6QKEScZ9K3sO0fu+9XEjONUpbZGZOPKTXDaXmjut+SSdi6NWHRjNnBuVqspL6f+piUjGJU0zgS48BVp6LGOy8UIj0aZlvN+zepQFESpEHWey/tjqn/5r1m4HHlFFFYsq9a/oOZoWVnNV74w3qmwAgELwvi5WRiQ+qFpmuVHe9TXh8rd9XyGKsZAukM1pcyjGS1ZAJiVTLqz4vDze3GJWyPY+bgxkdwyFB+ugKEq3vfKv0LBsZH59AppKvCWN8O62AkfZaP/CcGdf9k4f7XWXnE4Lr4OwWbjy9xgHLIFSgWXs59I3egzJUAIv4IKgh8oobSnOWQ9aeudoY3IkGnXSnTTYaeBu4Ieja9d/6SeL0SZRVHVlMAE77zBelrqbaOpw8awpv1JsGJQ6avrCZ5fgRrUWV39u/mmX/urtKzULIUdMATWbcrEnVpBQ8oL3HA4y0NrtWloCQJadgpFFO9gbsmd9d6Ni+gaE5PrY7VnqpsDoJzY43oDcmc3B3vkx3rMq955yUdM4l4MfDLP10UWkBCEwnvZH+f5wUhhLCjRpRgU6LW0XQSYWwTqSAFXkGZqyG1OYOfEKNdEyj3Zda22Pf/mvhB/56fbK8WlVPEWk0mkzdFWjjCXwa0PIMz3kZytsDLADUl9NQd10pXUbhxuqG9kP/XAvSq0EgWSAwwwCJaJgAm5zhA5oh2TTSm557KARlPQ5IT/KIS2gGQMHMmHo+ZJyeYCxCToRGpNd6I32Wd2/nJ84sR831m0xEjYszfbKUvOuQTbcGY52h3m/h96h0q5wk0GRR1pHkRLUuqI/ecmynRMoUKcojRi4RSChLbxW5Dssq6q5u3D51/6ne/7IR+NG1eal0oOy+Ao7vlrcVjfbVy1AXFTvvQSZInCmr+KlV88ElK9FTeDtrLEApNi/Sl7J+j7E4AeevGAI5XFmDOsZENE+w3UjQwftgFEoBtc3mFveUXw5wyXGRsMPJ9WtL77nVawmL+3lOfrTnXHS3AqCzXzsEJ2mI6tvnhj37KXtl7+k/PDE8aNnTs3Nj93w0oULlze+lCxudldL8DUSpGmzoObKYWOgDJQKIE6cQhJN44khrUxb7Jx988r3j7c241Pz1a3iDldqAYAqnQslWDfZIphNnPaYlW9O3ABgEeBQZURd2VVyLrqpSuu2jrwTFP21YKktn34W7on9uCq4yzyPUbewuDgMMISB9bmrbnmRgadTQf5Sph1z36pHujiXylbfrNv4dMw2cFkm17Mi0/liNMLwYhTsFmPQgWh1cvXRvaL34hdx87HWhz/04bc8eNZPBlF3ORee5MWVje1/8Ylfe+6Zjx9/wKJyzSQgJEKNZKfdOog5YN9gGghqCFuRsTK2bmJ7n7v+i++698cWGAEZzB67PulOfWIkyFUtqRLyID67onhU+Yw041SM08wWHg6RViFTrqb83yRsifrpn/7pm/OjX2ep79vi+pNx8rz7wnncN77nZU8wEHveiQWxVs472QEZMoIq6VeKFMDw0ybW3m0qvayQAYds1ovoWNJ7sp8c06ONYhjroU53Y325FRSkkiSlcAHC4PknaOeJ5o//2I81/CDtNIrexm/+5H++ePzEwumzzTS6+/iZ8UQ/c+6F9rLSoQ60iiMMFMca0pgiXZ681qRQgEgQtBLSVHgejIu9/nMLrVNzyQKicL7JPgdSRMHUE0T2ZujHF7TdRKUPmskEPOslCtqAdfM0fjUU3RRg3eb1WEioIMTL52EuAbDgjd0ytCcwVsMvFwolTFIIwRUu9sLac6x2f22ktxyHJBopF3h5lK+zTuP9391KH0pGVwaZDwcT6SW8piDzqCjsZfl8HL90jq99Mfnof/bHf+Mv/5k/9vf/dji3wvHkyatXfvmP/uGf+tjfePAHf8Qz/4F3fst67zL7Z1EF7RZ2EyWeia2SgohUqALFaRgDUG5sSFA4DxowUgvxQ4+/8Ovzb19pBE2FInYT7ZYXYJbK4iEppQm5hKXUpc0EWDielXbVcdR6is1hqeZt3ZwO/dt5KIgIhKv32is7vDMCb3AIQSdRKiAVNOZTk9PG9jDbzYs9N1mzxTbs/Mtx/2kXRdpeR2qIu2qLq+jX2F+dRFqPnhnL1QCuSHih6KxnNpOcRbQaGheE0Zc+2f/Df+gHvvSPf/apncHzj3/ejNd+9qf+8u+du3rB23/2t/57HveCQEdBePbIYmu+pRQuNCjSGGuIFEeaK0BA4WBcsPU+CjRplcZRFFAUyrXsqdXjDzz1wqeqWChXDqAQotakNZIqbSmXLMsjMEFVwMMFxseqgNahmaVfhfHcrImmt7XGAggXz+4O7kr5JRgYWRN3ndChHfveYOSqAr+Lw6xg8RMON7CrVSdEGXhZ1cFqKlqhdUqJOhL6wDcBB1fNZE/ih/S+551QIAhRhUKwvlZ0GyfuOXrkH/78Lzz8kQ/t+ujb3/Heqxt9L9Lw/un1rUv/9rNH3v3tAKq7kqxnNowgDhGEFBJXfTtsjVD5uRVQVU0YIRm2URQW3jdTfmbz4z/wyH81DVlJPYe0msWGs1JSLCFlvUgwB5QKxTo9Nr0OFbevk0GvMoc3j1vfcvMkXiuZXjKkzp/8hbzzZnvRScZFL9/ZyvuTSRrRrsBThp8WPE+UKx0rCkv3n4HC+GjLb+Pg8bF9zqBRdsvwvpm84AZXPLTw8gC/cLZpWo0gaoEoFr52dfim++7vn395s9/7zX/18T/5p37isYtb61mxndvCw8T57cuXhcE442isyKcxacJIQUNhgBzYIhGH1oizjTgJg4CFPXgEHGeF9x6RwqT4xPP/UsRNg5/CVEc7RaB2CUUKVjT3Dar9gG6eDtKjVR1WHTg9mBX/aiDhwcyB11puY401vZh67ih823fCW3P+X55LN5x3HlX8WD8rFhdWjiwdbzXMyuqFx594aWPjEWG20t0Z8SczBXgkjYbCcQbhscBcl91tO1yhnaN08W1zWbeZoZ6Mh0u6NGLDMRw/e5e4gr1cuHBl39woRBeEatIjGOt3+9sSZ1hIGlCgsIEYGomBYiHDbl9hjsDOaFQCkOUmLD+K8yqrfs66eeG5jScfWn1kqnfqHE81bwSRjHeq+w6kUARuTPvCwy9k+uAVz06Bxf/xY7z+PXIbhxtmvcSl4TihQqPn2JAbWdmy/oH3vWv1bffL8pJeXjB7W/d95/se+8V//qlPP/Zo6PcMrVpupTE1gliD7kK+x+vXXXHMj94aXX+oPWg29x1EqbbeFc56ZAAfNZpLC0cWENFhqiiv6uhDBUjUAuguLRV5VthhBtveuTiIG4rb6FFYW9cSsqITz9vK596XBhbZ2vL1e4aKezkmzWQ+deG37l99RN3gTPU4L2TwEiwjhlOiPi2nEXnV2G55RTzrxmW6CXIbk3c86M9rPfiN/ccLOb5oXLDt4K5vfsfJt53B5Ub64z8RfPDDSpz+zP/9Dd/xnnd82zf/v0IDTRnAKPOX9rMRw5Ur2bmXxxMrTqUvqeiqhNcHk6SZqtIAkfHeesdkDVC8tPTt3/b+BcYm0tEk+As/+l1/4nvf3fByV5Ice/s7Nra3mm0/MNssnATY1TYW02A7lztyngQajG2hQPxglI0yP8mK3AiLBAG2GkGR+5X0dCZ7L229INPRJlInEKu0oJS8atZIfWgC6gFsah4mB/XaX/VyvYZy23KsQ+OAmJpz+q3f26O53qm5zoc/2D3VBfT6re/lyUDWzutH3xN05+mpT99//+o73/fupwifINxmVplsXBvKvsyJUq3gyfvkuTnYLcz8ajdN4nFhjCnSuI1AKoHCWuP5e/67v/rho8e7pAPB3/3tz336X3/x7ULf91/82ZFu9nprPbqcg0liWowlAht7P9/P2hMfFaDYK2DNVtgHyM5aQbKOXeUvIvjlriqy5Pse+hMXdi9jNaJy9v6YZJparhh9nfFhnLaByVdcEpnlrF/9/Gt78acB0ttTYyEDcuU3kY5GcPzh4W4xD7rVjZ0m9c0fxMGe+vTHcf0aHD/j9tbd9Usp256RF41bR5+ytBED0EMFz98LT39DmKx2VDttzDf3x2PA8OjCsbuW7s3tZJzZFN5ydGGps7z44Ld/x5t01FjfWcnlW+976Pt+8qP3fP8PvnjhxdYx/4Xt39gd988uJ2c6HLOd2x82RwU5IONwVEDmXOEHzcCLIkRF2nKtZshXU9dyt3e88ciDqw+GOqxLjbEeE1iRdEcdFc7Xjax4o6RhNrEGD7jVjabWV9rE15Jj3a4BUqmzHdOW4spmUHokWqZi5e7G1hPo5+X4KYgifupzNOypogh2d5OH355v/fZocxuS9rV4cjZNXhoOQoPIRoV66964aDQzh37iB+v9pYXO3Xfd30g6nXThOLnd4fmX1595y6l7nedg5dhDH/2pR37yowiSWdPr91+49HL3WPCpjX+61d9qpvGZhTCULDK+VbAC8uQhoqCzKC9uhvMkvqbmupm0etu7jaZGBOtxmPkkoC+uff4jSz9SzaWpR+tWbxfF2Ey3u/V7r1g7odwYhzktzzqg6tXUQJiNiYCbsz3ltgRW1S4xHRQ7LV1S8/c89y/++bw0dTNkb/DEWeht0+WLYguxFjz7/V60u6tQ7Zv86Wy8snLkeEAv7/VOeZp4IFQjy1EzCRO1vDy3vLCaxK2F1gqiaqfz3W7n+WvPnbv2qJiCnaFABQFqLUkIcy2dHNn59ObvXt98KY6D+1eTpnKKfXtiNAtpBUkIudv8zGU9F3gdCSlATKK5nWGRO0Erujr8ScH9sd/x53PmBqgbJVlALJ7Du7Rq12xdxLvJGtuJShZUtFRvDpOpIwnsBtmVXwkW3hnOvYlv8PjXvmr59vMK67fCs1hgfYMKUjLmuZWN8xQG4qwsHvFXzgejvhS5WOZmB154MpasQUkHeRHV6lz3ZGdx/4nBNbGCUnxiuHrXnG+2TpxcXekuRVHivN0aXNM66SbdY52lK+0XPn/t507ftdKcD5VWQIHlfMCjF3a2tsZbk3HWiJO7j7WOd5SSomE4nTjlFTtjLu7tPLkdLgcuCcYpBWHabs5f2dw7f2Vt6UirUrp6XPhS/bKMi9F2bzOZOzbNKNdz4IUxWqwzM35y1faeiQLUpNzeuUIvR8vfOLWbFRiL4aUo9Gb8cjj3MMHhDQSvcYXWbVaPVS9s4K8oAAcWxsFYr12D5YYT0GkEL6xLlokz4Nizw7XLABChuzehH73n+APvf0/y+U8cWWmNJsWgMLrw7hPbk9Pzo77xflcHFLfSNEgW4m4Y6Lm48a5H7r+2szdxa3u749yMHBfCVYkLig6ixW773qPtlRZr4dS7uUmBnt3Wrrm0N9mxzWVtU+XD2KSNcS5Pn3+ucNyei0p7RRDqcKe3p7RSSnWb3Ut7V47PHZ2OZpvOPEIePGOdYbOjzVYcRfVGliBMtN8zvXPh/IMHbqGOF8zuCFsnbna39O1kCg9FmWstJTcWlpj9He0ZsgmYEObmeDKg/W0xeYUq77c3SLwX0CgLBJ1W2HzqszgZRu1GQwXNuAiyHF4eX//fz8P3nOAHjraWm6lKm2nTie1PduMgmcfOsbvPZm5i8oGg7WU9a6wVowJuBrIcS0MzeknErgyt8oJb+7DdR+vDFCxqomCjmDx1adfHcacRRs1kaBiRWGRzf7fZaOfGKo1R0FrvXxdwIHT4XUcKIX+p9APDsGZX9RgtpSLJrsL8g9OkDohOjsGxH1LRYqXo6CtCWq8RzvA2M4X1IqPZqO3DMty4noQRoYhz0GzJcJeykRgrwhJovnKxmnitNFKqgccDGnMSkC9cGBGFiQqUZx4+v68uTR5Xz7a7YXF/2vrWpdP3nrr3zEOGzUrznqEdNXWiGgVLuBBl3k8QvAKu/ojyvuFsx3BkXLjWg6t9nzmIY+oEKolNqUT9qcVWpjFKGmvDnAmEPaEszS/2Rh7ABCFe6V195yPv7Wf73bgr05YuP61ZeEVZTB3lqvxin1XqjWbDclEnx4TH1qwF0bF6+/Rrr7ZuUsnE6yECsyyaTJcpV17htI0Fxnu7QWVZmD1HsfR3JMvQWXBObAH9fRHxIkiqlURzadwKA7SeaoddQJNqad1CpMKsFnR2B7uf7K1uq9MLRwIpkCn3OQIq9F7GmlysWykFTXANcal3TWsWc7M4tp2JST3ouQ5Hgcylfqntj3atdROX81Kn1ZiPo/aF7REriSO10G4eXzxmbXhtc3euk+hAk9Yvb52fS7oyjWMJloqZpxNW8fAKVpnNOMLD0dF6uYsZvWRGLwN8JVt/zTTM7cGx6pR/nemX6Yiog2kYFdKywUDVRtI71BqGe5zn5FnY+3GGJdxEWBPp8tJ7C64odRsRe6zSM55BNIkGIcGjK8tqc3vjX1+W73zTOCs6zVbhBiCiiIX7hGnisgXTR58Je81OMQeWI8uKFBpnXlrnvjFxkA9GxWjLzMfDlWQvn+xayANcWkpy55zA/jC/cG0PCO89M9dMov2x9ZCd2zpnH/hAOI2u18gHlFlfzrROBqeRYSDQqUwb7OtdBOUnQXoqqOZK3qhWfq3P/zYwhRWNpSpEfeNt3NDvdZLVW6vDUNiJI2AP4zEURpwXNjAcgPclgIAQPTgvzpm8ACRrvRdkYed9ZgoQCEMqHJx853vwk797/dy22x1JmIyynVjPIVgmZh6SmPnxZttlpAFsNT7EeZVZ7Bd+KzNXenX3orPWJKrozuedyM5HzUZEym87t93PGLjTaXQiPd+JASEOI0QsrEsjNRmOX9y8+PDSqZlHVw2ZqeuM8RBPmn5kCI9M46M1uKoLY4sLYfIA3PgBrzmLxze6xqruxtqTFpwmOmaYmu6NrB6jTBxpcbbkJCYTsmKMOCfspciZgbma3eKsOO8LUyINwHGFKuFBZgrnuLR2OumuNhpzCem2p/6FPs37KO5aP9boBJ1IAWLjYk+LFxWROGHGvHB7E1kby4RpruEIswgnrdBo8mlDWlEYKaNwc7R3tbfXbrcajYZnLjxEhI041qSsg71BVtrDGC7uXn146UR173DdpUOguN52LzydA1/ydyqKLFg69YoLVikpClaRwq+Gp9eKvMsb1yuU2QiVaVhBapDNbpDZauV6byUjj2xpBh04JeMxkhLrSmPHrqTwdW+qZ7ZOrDV54UWViBCw7DLnR1lhBQl8n+XEgw/B/r5mTAEHl3eiB7GvR6001roAcczOIThr0VlEIm85My5p82piOmlefh3E8hhwHFDf+7GYcZaPJq5XTCbslpe7SRILo1IlAY7DMAkSpRpX1tfjUBnHUaB3JrswhdHU4oPMJi3jQXdheZt51dFB5xCApkmdKD5ajQu8E254tcyioDWcbozIONhOeZBtremtiRq+N84kDNlZyYYQN8W4SoE5dqXBq4Bl2eTOOOOqkaIslp3xvp874yXzEga4YemDb3vU/t4ntWAM1LvWs7242WJjdUh9IQGxFqQXp41rVwObe2PVsKCO9c0mNaLM24K8l8BBwISaBMU7U3ir5jrzR5MYiRSFQOG1nfVuqxPpziAv1rcvAuBCM5oY56zP7GDapjprnOBX1DJUSRwEYyaq+45ZxRVON9wJHtxx041kN8crfIMCq0IUTT3ByvlhmdayHQxjqacflwTLjTYWjh879xu/h/Nd2VuTyRhaifcOnC+BZT2ziFhbWG9cbpxhcMxeIHc8tN6xGIFMJFSqb/TZk6f2hqOQIVKYXc1cbxwd58JiqDgmESixOIh02p2f39jU3to4ZraYTySKw0BPgtgHCSP5Sr/EKItt1RVxpctBjWQhc/jCpSfDVIHmseupQJ05vXptrZ8XxhgeTexca7pJuAoiCM/iLFUiq9rdWVEuDpeCeGmqruqQVdWpWl+VbPRU1LgXKb2TKzyQOrwuOIXQgeM9W+xVQeqg4rY0Cfl2uzuf723K8WO8dRUmuXgPLOidVLUp7Nk7MblxjvMKSVZgYn3mpB5X2/ecRPDYSH/LD3w/vHyeyiOVkGV0cZhudOO38vZwLwmCgvOAkMAWXnabcXHqaCwsRAQYWC9Klw4BRQZCVARAqJiAC2usBF7QGP/y2gvGDTpzjVYjVaTiIGk2OrvD4V5/NB7ZZhqEQWCzOlBFs1Q01SvIqZpKAygKwPocmm+u3r861JyDBwNEouYDiMHNO6Q3IrAq6EBVD8PTsqRplhWntu9GLEcYwYLZgSjUrsDjJ9zjn1FZLtaWRNd6sI59CayiPF5bODYecs9jywWXajBjGDMnIV7x4fzi6rf+8I/0/87f8SzIjtgHI7/x7Lb7gG9Eg/VBeGxeRxEjsYfAAk5KhlWiioniMCBWIB41j/LR1u7AApd+KQKFKo7TQEfNZrS8cFdv3LdiFKlmPNdMOtv9vUtX15xzdUN+1eGF03piqdtdZUq5oB7GXF4Qw824eQJQHUyChxlzL5VWybCCr0Wu8A0i0yYVID5gUdO9tjXRkhpYPL0vq04pM15XZFGwc3Zx3GglniErVJ57z1BSde+9OMeZsdZJ4XhieeQgZ7AsGYMjDBR9sVAF0J/7W//D+Ff/n9KdtEXJ+oVT5iuXxpMsm+sU7cSmGgkcKtodF9Q6IXbPuiFQ3LfmqJbIOz0xGEdJIzrSXM3ZIZDWIaPY0kYpY2R9b0eQ59vdbnN5YtyzFy+sbW20mkkah3luMuNSJa1GcJBaqHg7l17htG+wBJmxLlj81srlP1x0deNhqdsQ+WaOcHgDAasuFBE8GN3DflbWPSvJPQhkiadSm7EAuv7zUVCqige//5uf+ZUn72kvBOMh9cfCXqxlZ61jY31uXGF5WPDIy8hDxuiqaS7nLG1beXiu9Qf/1t9Tv/Ov3UvnvMntZFAUufMSi+Ca7G/tdTphok2kCKnUJ/MtdWHt+fFEEyJD/96VZIhoEgWaPCOpKA6TlLRCJUQXtq9tD3fTMGimaRigsLpy9eqzxXnSqtNIHrr7mBfY2O4rZeI4sVneSgOYqZh6Z1g1BbcKh1ZuoWs8HEdLhzceQl0sLAfe9I1iwPqLeJCjeI3kDREgvVG4XZm/2vSxsDE7Xw7n76OgDTey/VJNPmeoJg2bydWQPFQrTRZOLOxcfvn+d75LfuvX/XAMwOxK5u6cy4sSVaPCj6oZs5Pq7r/GdKmQFfHvWVj+wMf+Bjz5ZfP8C85P8t6Wyccjk+e+Wsk15PFw3/MczBaRlN4X4YkjDVsCl2OVhKiB0CFzTGMHY2MaQayRh0W+trs5NsV8u60IxrnRpAKlV5fnj2lVgtKX6C49VecBuJnqnRG0klb5+hBns+drIY+BUqowEK08NO2nOAwVPvj0YKwIHrrCN6dL5xaWWeV6zdKrpSHT0YgUBvMPoE5m3ShQTaUWqkCH4L3NuPeMCqgafQ4kxZl337dezM9ZG48mGAe+PHhf2kHrJ1YyhwMnEwGP+JRD4/kYQkvBQhT0fvbnEhGbj81kP88nw3w0cN5UpcOYi59khWkEhCVtqYpXBZBIW+9CUl6gEDFCWmkAYgLxoxevrGeOlVZhFCalmSu92lArZjQiWqOiwDOEWhNBb5INM9tuNeYarV09vry3LaeqzQclMRcGAtJAYeXxiaRnoGTlh9soZl4hHKior9Qkr7FRvMUj79PgeQ2WaeoCy89qj1AFLZzyrno2QTUiSmzJIXxudh6PgkrFlQ44A/CbP/SOX/5L//Rdb/km89TnA9VkkSpqJZnl3PGIMWPwCM95RM9HAAKEEHF7d0MNd+e1VkiOnWE38DKw9aYUKJVhyfvzDImIY9Les2EZjVwQxGlM06gaYM4KVbSTjUQgaaZJxXIIKQo6DLqwPfYOkRRRq9HNzDgJm97zpbX19a29dieJw0aggjSNL+5ffWrn8tsWTpbqigJUgdRLVkGMseHC3fDqLq/Dy5u+KknH1/z03wgaC4EYvFgwW+BGIMy6RdEKCfjZaNfKG/JUQqzk6c72/d6XIu2nvcIybWtRId710OKoea989pOdKGClfOGs58KJFRh7cQJDKT3Fs5WuIqo6E4G3jR07k1ZWdiQ4qtobGMRWzfAQMrMrCtZKlALnRZHqtPXGrl+du8vZXmEmDBCqzl6hNvobSRS0Gw3vJQ2arWRpb9gfF+thqEipMEhaja4pXJbJhevn9/u9VrN1+uSiAj2Y8MC6ZqOx1y/+5fnfXWj+4F2N47UKV9OJysC6E6hUvsKy4SsN3yv1yE2Jv9+yG1arNA2XDiAxMBuZXMBpvkI8e9W4t1r2UTOqOprlocQWF4OLNLmktFRLVQXYYanuSq1GKOMMf+Wj/+Sb7r3P/86v6maSbe8NJ8V2ZsfWbxrwDBcZj4scRewEeiA8Al/Z3Wq+OpecRqof5wQKwLHIC3PqTR9bOHGm7Tw3k7CZBl6ASJGi/ZF78UJx38kzy/NdAbm2s3Vl7fLx4w1ALIyEusXsCzNqt6I4DMvbB2l/OB6OJ8IchEEaR404DHRYWJ8Z5xw5D9YX19d6bz/y8Nr+te++74MPL99LMOXigFDoU2H37RWOaBbXw2qFJr7SCB5keA7zrdu/S6c0fiCuSqdWHmBxXWHdt173aurqm3zNtRg8VcqLi77tP6dlgqrSUlztAmGe5aiZrVGte9/5//vj1z712W5zzo36rgpXOwEL6Kpo2P7C/PvvPmsfewJZjgZ6yLQltqirnGsIC/jy+8GI9AXxXu3RO8+TvNBKorBEoiLQCIHmY8f081ee+dwzBZFaaMfHjrZIIAh1GiGAZZBmI9VKK1A6bAqGMnbzczrSSKRUtQTTswQqCBvxzt6wfOuoF5ZaATV+/NE/dqW3lvss1Um9t7C8jVQ63XGCN5q+/h2ourlyixb6ITms6h9LU+dH6CcHoany36Az/bbyr6OSmzvbew72vxhAVjV8MbAH9nUIvtrZ7cUVVi8Gc2fv/sD7xvnEvumtk8HY2NKqlS56haoJ0om3HfnCkfnlP/TDI4bdoqRrS6JbvvypDkr8WYGCofDlv5dilTyiWKgoOC98YWxurHPes3jGwcQjyn1n5t/55iOPPrxy6ng70ARI1sAgy4d5qYaUUkSogjSJl3vjYqfXq+rJqFRgFTXT1XTa3nA0Md5aAZZQxy8MXhpb87blhxJVLaTAg4339ArP798jU5zdDKDdasCq+peqxF9VGSngrRTr1XufTpl2GFIwD9OKGIvCfnyVdx8LzDqSB6nGE1Wr3KQOT5ccybnCcuO+cOntBIySf9t/+1OboIL3f7Bwvg7e18m7TOCbPvDgM9Hnf3HnS9n3fGDxD37vNgU9x46FKrg6ltxDzjBCeC5Uk0fBNiSKaW1rLFySae9L7cUilfFS1foBJUBewkDPJ+ES4pwTlURhM4mbcRLqpNk4RcGR5y6fv7R+eWkurXxD4SqqzgKZtb1RZiwTii+lZJQ60r96/hNr2S6IquZhwfQs3XialsevCCJMp4W8Wmb67TZusZdaR/lppWPVSM75dQJH0ziVOIopOV6zKwUe2Nr9L+HoefLDEnI1SRc/66rwIOyNMbRIR96v2meq38IKfBjj2///P/bC5q5+z/t9xdyoitN7gWNHVtNldfHM5Z8f/Zufu/Bk/KM/fPzH/lj7kbdZCnMPGUMGsI34RFNvvB3is7S0GueF29nJ6yCW9eyZkXBS+O39URToaToA3NrW5oVrV/aGGzrwRDoOmml0xHLnuSsvP33+3yo1OnmklUa1FReiUpEpihTF41z6Y+u9D6rNncIchTiU7J+d/+0Xh9ewdm8qViD5+pSqy6vMnrziw+xLCK9xD/SB3CIt9rO8Ms5qFGouZba072NVbssYSbBC4XIdQkYQ74Zu7wntxwhmpv+nuUKCuheBLSe09E7dPo2ocDrjoPYTodFttE/d8+xnPt8+cdpcuZAzjx1MBN/xkfc+s38O43iU5lut3ueuPfeZF57djEN/+tSO8EWxL8zT+RPgHpDuPcHycR3GtNfL5+aiNMUwCkipKEoEw2ubk/5gtLo8D7MIlvEchBSGQRjGoPTE2kG+63k436C5ZhIHQcUXqdpMohREkW4KpVe2e1t7fWFmwTBQhOgZEh0a8WPrzw+vFtZ2044OggILnuyr5ilS6bTXubSMeEDtX4Wh+tmboa7wFvEKq+p0JzfCKXXkp+Dxy1SPthAFySkkValzr0Ss2eHek5oYfFEnn2t1hVNFJcaBtB7QzbtqzTct95vaU1+vtWfBq0+/9Om/+TMrnaXrv/ErW5nb8vTH/8mf/6Vrv3ktn/RGozwzw97EZM77aiaSI2anCJMGRS1pdoIoQqWh09FL3VhrShsJYzApeH2zr9A/eP/RRtRQqARlb5iVJoyUoKNAaRWEQVARIiQgZqmrdAQasWoR6KJwu8P9td1NAReGOtIakZpxqAA9KEUaEHpFoWyy0op3+1sxBg8v3fPBM++33IqPfVfFtWi6xvdgRTm+AlXyWjuDh3/4reAVTis/8fBsMGBmU6WTdVXMEBBWmdOKDlnb5/0vazUdN10ipoZL7foJG2yplW9QKizN4kGSZxbToop2YWkT5cRDZ7/zr/3FX/tv/ub8d33v+LOfg/VNQn2ic9c6Pz8/3xyrYaQ1iDKWTeG9A0WaVPla41QlDdIK220131aqOj5jitwZFjl1PG2mcayjUlMqGWZ+NClCrSnBar4oKSKFtb9GRGH1ftn7YmJ6O/mut1zVg4EiNlbiICBCYNUfuTiKkAC911qlYYDKfOD0h862j6E4YiFB9L1894lk8VGZdkvMsoH4lY30NwVVtbzeHEuq9N80STN7qq4LxVAOPEGdHlwY8dbtPqE1VLNc/axCpk4OVhMTaU4vvgdLVPEUVbOarbrolKdArCJb4JaOzv3oP/irK4+eTe89Q1HUPbJ8/+oZEA6jAMRFsY5ibLfUwqJaWsL2HIYxpA1sd7TW0GpSp0GEpRsnIEqhJmg1dBhohKBeLLfT9+cubu/1xsPJpNo0X7qq1fKnes4/ehFUoVZBpEslloSURkorzAtrSg+Ai0JsgZORt4ZHYzMcm2FmBllhHKsAP37p16/31rSfFjaqIFKj54reiweUYnpZD191ODTi72YIzkzh6yS1o+LxFbvQRCpTVX7iR1LsgIopXK5HfCBAsf14CPtVs5Ob0qbZWiICb7ymlfdXNUeVApPZWttD34ZSA6t80uVbkO1A0EQVM/hqB3Oe9c//5K//I91pb21cKxWF9lI6eliepPg4UlFMpKDZCJqJChToQClNLD6K4t6Q5+ebzUZLYTTK7NXrOzu7/aSpT97VXV1o6dJCoQWJw6CamU1VpYu2lSfpRbLCjjNbFDYveJKZPMfhAMYZW8ORUkBcwjoN2+04SUOlRCtantOShz909vtW407d+4YA+WhMqx8MG8dms4y+smniUBX8ay2vL8eqscN46Ik60DA9foCDfdk3CpDtgLc+o0Ndb9ueaqMb8GLbeFg1T6K4maKafpXKUxM50G2V6TS9czi6XJo2FlAxRB0RQ2ZfwP+TL3726cn+1vZlQlNVBHrrBEiiAOIQ00TFkVaqShJjqX8AUSm1uW1UqIz1g5HxpaXFKFYL3WRpsZkmQRIEqkQSTqxrJRGUagsVdb24wo2q3kVxTOMsmxRue7fY3iryXL3r/m998K77V7pzFOV50d/c29jsb728cT5347l2SgrDCBbbge/HP/LA93bDdk3bCWA04fjEh0knh3E1+0gCN9Fne72ANasgJj6U/KzR4+FGy5bceF4EscRcsftC6K9V6bspdKQi7JX9dM6zOvJdVV7YTgNhUKV6KsxVVn+aNGRgP7gE/XMldznowhAB9HUp6oW97Z9//gtj2M0Gu1HovTApJQBBQElYYh2JALX3oomIIMvszn6eJOHRo2mJD19eWNIqisJAk9KagQIdaEXW+yQM4jBEJB10iRqOR3kxqBbcaKDGxvbW1Y3h9lZxcvlNf/A9P1C4q/vmMmDf8cj6wrMFD2nY3h3kVzb2SCsKqJ1KK1J2kHzkgQ+txN26YRe8Gdlu89R33xi/dujcb+oyX3z96rGkLlq/8ekBql7RcDJrv5nWHHs2o2o4lJ8Ftuqmk6mNE9UU1Ch21l/uD9q/oMLgwVRFNkPpv0RUD2Kc9Y0drOUGON1dPhYHeff4l3Z7iKrZIqVKI6g1hhoUovNgWHRQum/DkQWE4ydbrUZYkieW3HKpjqqNEXEY1r+VsARoEuqwtJuCqIFSFhhnI+scqigMmmubO+evD3p7/uTcfXevnPnyS8+tdo+q4MTYn8/9nlalkmbgzO+nKdx/tjGY+HFWdVAAB3Pjn3/mV3704R9cTbql0tKBjNerfUzq0Cl/jVj1175sptbBfHiH7GFdJa+m8XUEgeVgVh342TbHuv1LqiokphsIqxY1yA1SX5fw4kxXkYDbeVLToQJ5uTHvoI5ZE/M3HD31Bb+9stIWb4PAtdNA6WlGtzDOlzqr/N9znWh+Lqp/QxUrFySIwsAzB1oHJR0vlS0LhxXJV+V/w1LTsh9n684b9jjJGZXd2Fm/tjUaDiTrF3edvf+b3/wdGTwzcs856Se+EE5G2TgzQoiZcXGsQFw7kWZMwsQlQ5SwC7917jM/8tD7wTivWvHRbwdQh9QV3lQLeFi+xuGGKmMjcnirejV34IYDMZtQXmskxlkjXN08qKKOH19WQVDHQuXwAAwBMAOUop5fMN0LMpsuXP+Kaj8ymN5Lyo+qjuF6asah5gs8GKEBb1o+dunq9nhxtcg3o4AasS6sM9YV1paA0RIEoYgECquYGOowLJWmIhboD8dRGAYlAyNBMs6FWqFgoJWu/Edf3imGKzhOCl/lGc32fpZPYLxnPvj2j3zbe9+y635bJBcy4EtGPjHZYDLKLBvnEckxt9IAKzpVtduQILRIAann8vSR098V6U5VdXijCkvkJsYXXiVf09W9Mruvpza/mo3mD2A0UxuzFzND1VQzlfYk7tw1mdTbGWZPyjQ6JcKBFrP9hekMn2kdBNOBVa2UpNihDC9WY2Gnlnc2nuZwR3557FqFp7pnlG63Wm2GcH9kQTAJg2YjSlOdRmFAGJesqdrEpcnkRV5wf2j2B1maNKMg1qRRUWEdstf/H3V/HmtZdp2H4Xvt6Qx3fPOrubqqeqye2CSlJimRJmlZE+2fbekXB3YQx0hsIUD8h+HYyIgAzmAHDuL8EyQKECNG7EAhBGoAJcoSJbk5NclmD9Xd1d3VNdd7VW++8z3THlaw9z73vldNBd1NVhPIQeHVrVf33XvfOeus9a21vvUtShijgjmHhzOQGW6OslLW6tGkUpqOhtVTp3/qF3/2swP1EmLpfn0/9Ki1Eox2mikFS30DSmkznlaUUcGJFKSZspMLy2dXzp0+RW8WX/nfv/Gfbg1uztjc4Yb+aBcUvuf4iYF3nO1bn9PKZrkeHs4yz46QG9r74lTwLog626vu/knS9jKKdoa3rKnVfKxWNoL0OOENREV0AWpI1BRN4Z5AqS36XAKhEcyC5tzn1ZUyl+GhpvjC7tbSuU99960/bDamiP3xdDAZZ42EUX+B/LCgF3sBv8zSQtjFhQAa/VQXYc7YjeYcPDjjDsczbj2RECAIQ0BR2cG0VMru9vRorPs75J/8nV+fihcLuEeJscZYgtv7W/3h3tJCgwIJsjja2EGmEWgasbVuIgVLZFtAV9J1ylShbuR59cb14hef+s8vHv+UpV7JgfzkWnc/scq7bymDAbw/NcF5OhaeVQfImfc6Ym1oZ8ERWbIkjv9MdveFtNmoe/hHoRIAhxyyq36Gpy6Q1g4Jrc0HkO3aKYF0icQrM90HrHcY4ay0R+Hrd2+eevyXxur2pNhvtroNkRJSOSBsDWeEM2dZhbLWouR1kmXJLMcgwCjUBDLBHIRnNJIiFhKAM84PRpOYowEHBYtSUYJFYYyy42HxqSd/iSajnfFbeTlhQCSV7966mquymcos540kMhb9MCVIXz9LHJgTsegI2hK0y0hiUSGwJBVLi/3fe+O/MvhfPn3is0h/0gnaT8Cw/CBEXa86gsutnXmjGTd2Fh7DEw59CR6FXO6leLJCH/pStvkdbvajJJkPGNZzhfO2/iy/9OV9i0Tbou/BtyXTfZeWxYu1r6oFrkP8hZfvbSydeX578naO20XJrK6IgDRO0CqlnHmBi6o2EtT5E/ebQFB9CXm+B11g6yYw5YwncZrEMaUOX2V5abTmkUQgRWWM80CkKGxVmHJqzx574l72PS4bpCopJTu9HWDk+NJStxlXWTmZ5NZrrlGCkaCxBM4hlSeacllAQiEydqp1jxCpESPBNR788ZV/3ElWzyw+Zj/6PdBHj4/OsGaX1zkRez8XaKZkdR+1A2vJhcMh5ve8FJJDuVqkTKanP2uyvWz/NaZ6Mo7xsMQwU4vE+XtZBIP5gFpdF8WAYL5LZEqorOu0sxA9NdU9WJxsvdVeZm9cu/XkuSf2Bq9pUy132o2G9jKAysdfb6FANHr9NrSVxkopSWmnEQEBQ1wK2G4vtdMlTplFk5XTnX5PqfFCpxHM3mhnVlo7d5VPK52Txy48egD7gB2ESW+0X6nq1PrZQk2MEaXKlbaME+mM1qsXOQcIlA2HuWBoJS8orcaF3hlvb+1tWasLg8ea5e+/8U//9mf/V07l7Kb9/2RWeH9Lyp0CPJriHlYByDxywOEejllHD/BwRj5c+FmuZv3q9tq+eLrMTn2BYFUNN3B6B6o+0Tk4jwKUgoNBgQuPhpgSi8HM/9X61Ga6zVqnMKjc+QMAb48mm/lBo9XZHeYxWeZUUV4Nx6NGlDQSabhOo6ioykoVAMipM5/AYY0kRqzhixierO8SNhyN94ajPe+3qODQSSmBNKS5qtJh+FFVxhrMp/rC2jOG99ASrTAVzeZCZJpLxBZUNpQey0hSzrM8o9z9duAHy6IoEsx2BQckFY4m5cia8XKCCycXOYdKuzy4kBtfe+Of//Izv4Y4Xxb9ER/wYAwL54HncKO1b7VQnNPOCJnvcEE7RzSzH0c4rGDZWfXhSBDEeo8jmRcm/DiYZx5bB8Xbp0j7hHc8zowAodr7Hi336iqqLnC6U9OakRyWwaqMoGeo4yHmu3SwsdJ5iLaj16689pmHP7s/fZ0Su9RubOzunF7rEiRb+8MoFtRFIePgOtjET5lSSo1BY6wnLVjPWiecc58GQj1sjPVj9FxT8NisqqxW2pb61LnHMt3PyiphqSYTZ3YUEJiqFIIQTLukksT+sxop+EKzrYwm1CroJWy9Q9ZT1in0njb7SptMlbHLGRgQ/c7d3/mFp/49RqOfFH6HH7kOO1c5mxlBGD9yV9WGMYZwpTwN1OIMX9dI21ZoRnXeVy8JDa9jZ0+Ze6+6aX8oSzR7qVmlinhmn4MdXquMEkTVe5MW+94itc17ONn2Imq+vOEbQYH27OKYqTz8qhs7FajScORkd7SdZ3p3tF+aqtTIKD+11pnmBadsudswBjlQyXkiWSOSqeQRo4JCLGkS0ThiUSSEgEgwyahkEHMQrL4BXSJJ0RrjPjAgBTRaq1IbjavHTk3VSBVNYrOA2hgllJJCE4A1gAWkEVJJeZSmC0utRcloI2Z3d7ctVqXezvQNCwecUskiACIY7U0L6uFgHE9u7LxBf3L4/cdS9LP+csyH/z308R5HVwc230WbA+WEd1h60kuWh02zvplTbIHNUCyiWJ4Xx2d4COstL7UZ1UgJyNzfkMP+oLfg8LOeroV6fMcOrjBSEopoSpv3QBXeG5ojqsohk0DnSkwFTJKZRCdBcWFlcSdio6EmBm7ubDNiF9tNEpWxYK0o0rrklCopkzhhLoiVNJyCEHwBkFKDloGzJ86oNX5iNozDzyI/Y1QpwwE11gJdVamMtY1WO9d3gHQJ7XsR5HpySwAqm6aiZUmjYlUnbbVkQaEC1IYYNHa7v7va6jq70YB+25M2tlS6KCvbiClAJ8Ebuy8/uv6JH9tiPujxIxjWfb288Bj8RaVITLmn+q8xM+EyIZSjZUQd6HxLLH0yLDKuHVQofuohEQt4hO0P82bwkfISmZXg66wPLdS6RehbqTXhWOuR3r/EzYB6L4mmxKwHRhFrZh0eO+8tHnpEq2rU5bGeBJIm7f3p1FbVuCjzyb4qWOtiVFalqsq1bsIBtMU0Ips7w/WlZiyiXOWUosM4vnnCADiF8BURuaCIzHjYJRgg0kimCHYafAmiVRaVVYU2xkbN5GBarrcSQimzYZGXtda2ErjVM5EwkstmlAh2SkKDwF0CfQq2kZq3rl9lF7ATSV9R04gGCQymBaNmqzdtNBJGyd5w48c3lw9+/Eih0K9rm133Or2nFqvRZbP/TcktS7p+wE16vhHnONblAcwwljMGuex+Bt0pqF8Tj5rRfQxlCFWG2Sg91Jv+QxG/9ljV9J7ZfpHjaN6fwWpKULu3qO3J+DENU4u/18HUl+zrbmIdgzcG2c5wv6xs76AcD9jlm28naWuaF0aTvWGuwrC+0asL9mAw3B8UDCSjwiBlnFFGGCMxowJmg33EhTPBIOI0EixJY4RSqWkI/cbobJxbpY0yRhOIWKlIKNsx4qEfGEqRAb3+zi1GjwEhgqmivHNj753JdNHCE2PV2D6YZEq/cX3z3c3t/jSbFNW0NPujIiuLZgRRVOz287xEZYufJPPuw3osHz7I0U5xDdvV9AZMrtK4g1QAcH9ibVBM8A/1zPF4A2MpxqfRFgCczN1P/Q4zg51J1h7hf9YAH47UEQixRf8dOr3FGJL6ZfxbOIdhjjonOJQrxfmK7fo3qRMOUIzt5qZCOuqNm2SZt0iyJ1abC9uaSGkp4HiqYuEskCEut5FyTcEFPqS0LLWQEsHleoLR0I+y1hLPZbZoAQiqqace2iCypEtjtDVau7QQuQEiosZonCWpiaQDZdYUlsBgNL7y6vWfuvhL7c7Q0rEQarkt7vS/ub+5V5QTxGqx25RAqGBvXNtKkrjTkEKQxVZMLFaGxnF5e0c/utJ+cGbz/seP0Cu082fPdqCjyjdx+BpLFkE0gMWECnc2wbfRAI3RLGp7DOOhdngFmgD30j/1UoVD6jCpfdIMuaPDSzPXOu9ge6oC6nLn+yy/E5KQ+ypgogEimXFm6jTQBaRANfDfRzJnRdd7B4b5dKzs5ub+xjt7jzz81M7B7cgS6QATGmUEw4hDmNwP/UnwMvB+pMwm3HIswDMKtalrIu7Xt8pY5WuqwVdaY0NKY4xvI+razmylCyGS7eF2WSJlKaUInA+nvaycqjL/zS9/NeYP+RQFKVNnVtYfPXH2+UcvfOrRC48eWz6zurjUTB89t8Y5b7carUSiJQaJtsZYBKov3XhplB3gDy2D+YiOD0Wb8aqpZG5RaClSS3SxZwevisYyofFRsS9KwOXchBLRJTQ+UucMZUweYl2NyoHcR1+ZJ4A+VNlaAh+PCCQDmqrc+z6100yxomLaCoNSIzcO7DEC3F1GqSAsIvWW6vvSxlpDHPaqACuqJc24oIrSPGLlQZ5vbu9tvHX3c89/6fKtb3ERT+xUO0N0gGg40UkCghpPpSCIxsCML4ahthQqws5YrQ0bU5z3xhDenLf3zERABkajtUYh1lZl0UzLkkTVFEd3t5ECrLSaERetxBwc9A965trlb//h+dO/8POnStzQiBHQdpIOx1qKKjRsrIWqUottORmbSKaMFcpUBEUzWdzaudPvXfnKq//j3/z0PyKUAX7ErKwPp5pcz0EeCqT6WFfq3ksyaRMa+aXx+N53IJRGi/U/Qm3STMBOkS/75oe31LBxHec1qvnAZV0+D7KtSNg0K6e5UhorZZWyVfmUJYJFKU0iL5jhbk+LQQPEk70jCK1iT4WijAHzjzhz4JoAtYQiYF4bXJHFkz//sYOnT94VqdCW7R3cM6Or129ttxY4ZRYQi1JHDQIMlPIS3sYEVT3qvLGDQ15K1lpnXWB9qjifugqhmlLKjKbEd5KtrfffWbRGj6eTVFSddmvz9q13vrNz5lTz5Epzf3fwB390nSecMvabv/kbUfrXvvjFNWv2JGMEaLfd3tjOs9wsL4CqykrpyvlK9dLL+2nUPX16ARG//crNGxvDp548sZ394HtX/+jTj/zCRzpIEY4PyCANWx/mE1o4I+Jj2b/EZYRUel4Q1hpn4WQfFjPJbF4SZwtK0JoJspZn/M33dR3mgPOKqrF0OMkrRfOKlJVmPK4qNhxNplkxyYq80kopayxQEJJLIaXkQnDBORdMCM4pk+GfjDJGuRdK8DM19RCnz6GAm92UDzB9qF8c67TXH1p70hJ85uznrE9Cp/lwZ3Btkl9DfblQ1xIxiiIF4CKMMuC8L6VVgWmSRi4H1NNyKihhnHsX5RlTFAE4Wk0cIJOK+EFF6wUesLYtgmY4GERtQGsXVzqKjF95+97vfHmXSU6libt8kbQH90a/8X9/+frti3/pL108vcwZ0VrbwXjyla9eL7KqzUUzFZrqnd4kq+zy6uTbL99kFFeOJc8+d5qBrXT2vVtfef6Rn6eHWnUf1fGBQyHgXId+RklAXR6QcpumS7NCK9qgT3GflYAu+zwNUr++rEobhk6ZnVpgSKOZBnA96lWnAsaMxqrSrDIArL2739/bH+wdDHr9gdEu6gjJ40hGMY8TIXjEOROCMeb3RXLG+eED4R4BZ8CYQ3zeYwXbCsqvjBISZfs8WSGSUyGtgybOaioHgaxWBtLuQvJkM/rY/uSvGmL3ejdH+eXSvFTpN7Qpuq2I2Im1VW+0pw6Qc9JuCs44zpnTLm9cydWeg2I8toQZM/GT8v6PF1fyMluwvXt35dRp91/ux9TasZYUctgnaIdpI2Jn+St7GWfk9TeuvnX5xvKxZG29AWBubfQ1o2ceXbOFffeVreYaba+nx1rR2korklyVanUp9niUTvIpkXfu9W6cXLrwkVrVh9IgRfJDk2l68IYLgj6zC+jZ4wg7f0pYpEfNwJa9eUB0SIQmRI+pHhAQSCVCRICFwdy8rKYZKissiTe2dzc2d/d6A0aJ3zAKrUZcKU0oCGdJ3ijwsJRKjmoVzDOLEFkP//iOS3Al/v8tsiJ9wsWuUjj3E2pR3r1Z7uC6i6rVNJZ6XCSjqeqmp1faZyn9UlYN7va+s73/9aRxRYhSMBIL8KMVXpAYQYCUUacybJjvCBfKYm2MVlOttIdnocKMnPkwT2D7zrVnP/mwr+AatIoS0lyIi4lNu6sWMyDw+E8fv/zCZqcdsxT3B9n21tQoWDnffPriuuS+m8RO9g/6y+txkoiGu+VoVSltDAD1a4Gcj35n89WTixc+6tbOB8FYczH+wziIBHWxy3BKYAFrNQ/PUJwP2OBs2RlBIRr58JJc/XNkTmIAOQPpJZgKaGVpRxk7mhgCcWXtm2/dvLe9LwWXkq0vt8tKjSbT4aQEIM4TEWaspRbcBfAMVEOsspYZRjV1T+DBXXHnOgzn2nofZr3TogxqQYO6+YwaZz3F+c4/AdpYCdRZmBSMRisFwmIXu+3maJrv7Q8rZRiT51d/8YlTv3x764Wt8f9BklueBEaKyhSVZkwQUGbYTwQVXFQuwc2NMVYbNJ4c5rcQeKpqbed7m9crv75AW6RMWCzcqeUTyU8XKiNAmqvJmWeWNt/pnzu90lyIeCSqTBsijNUAAhhZWE8m09xWnLdoVpVCOxTQn+g04YyCsUQp1Ztu/wQyww8aCnEOqzwypYTo0TtSNghQ5hN3mIFTMu85z/gLlrggU/XfkAsXa6MDafgCtVOXnDvAk4xzXSrGROPKtc2rN+62m/GJY4tFUZZl1RtMeoOx9c4QKDXGKEapBqYosHDQYEYORbljZlLcaMGlQcMdMtcBZlHq2ecQkv85gdDiTFMSkZGyI4Z71aqp+4tGCNFpNoUfhGg3YiDk7vZBVeq9vJCCnzvxhVPlc6/f/l8q8TVrlR93ttooQh14L0soK8UZResApfNnfk2iT4kBvNYkow5MlOP90WCCfJIXY7SEUa6U7i4lvXu9xdVuqUcUYPlMK8vU7p3J8TPLyEyayt5WZZBWBv2ns8fPdq+8vt1srMmmdajUg8FxVkoRcQITqIDFSD6KBTr3HR9Ibea+/w0hRE/s8DKPmgR4vaV/7tiQHJ1iq3mZlEHVN8ip6PiqEiWEIU2QJQTSkY99jMkXf/DOjVtba8udJJbTLM+Land/sHswdMmOqpTSVaUqrd0DbZSxWhuljVbWePFjY8If9JOf1pMtXX5vwmPEoL2hndewStvK/3ilTaWMcn/8Kyu1RO8uNOX2mBfKKK0qbbKyGk+m3VbLVy5QcrbXG2ljqJ+bHYwmy0urZ5Y/vbU9UuSyi662VvryEApqmfAZLdZarJTD3dbasrJZrqc55qXVlqwee8KIflGMjNbavbshluTZKI2PKzL0p5SmbT4aFvnErB3vWDCUUskaBWYs3CwWu0vy7dd307jRbsVKVxASBAuRlDdvDhb4yqee+LlajeajOWBuWO/7vPnf4CsEenSV4xR4XO+/mz/1kBFaF7vn9QLKuMnuWZAsLDrz07LBAvcHRbvVunL13htX7nRb6UIrcWlfXu7s97f2et5vlVWlK6W9Hfh6tXZRRQUTMUY5gOFrQTNj8pKh4YHXCfF//HOc8algkVrPHjjz0lrrSllVnZAbUiYbfVbOrE0pXVbVykLXmwdOpsXOXr9Syjq0pItCZ3mxvLSw1Hrq3TvfpHy/Ls5Qr/mOPrWphyOJsaZSylj3sQkh44mqKixLnOYOd7Goe/rcuXG2h1oj2mxaAOVMwKA3ajXbBkvw+pGNjtjfGhDNussNInA6qlqNbq6nfnTSWAudpeTOjf5wr2wkKbFERklRwZ3bg9s3+4vH1LNnv9CMOgAf4Yj9B6pjvQe1O+vP7nEpa4LoTF+WzhXYyWG1k/puXKgfiKhhsytltiWXnppvCMqLMnDGp0VhtaHMfWc0no4n+c2NLe3Ob7jz0YvmBwKfj4HcUIecuDvzllmNVriTir6SFWJYXSG3zJdFHfwyPmAc/l6hre3CnV1bMA3Otnd7zBQ7vd4klzrsbfUvsbq85MclyGg8fff67bLyDsczgsJ7EgKxTKvsIo+vAidJlJhAGqrPtTds43wVBvU0xNIha9TaMC/uTwleeeN7P/35zwF5x/i+uQP7ugBGeaSqCYcksqQSnGNMTj66tHezP+pn559bJ1Lf2xyePnVykG+4UKvcXbd6uolob90cXn/tIG0zSOzSsejZj6+DLH/nB7/+a3/+v4WPQIV7fnzAAine/xWtGpBoGX3xsV5v450TnT/tyKAEJXO+CqEiiUymtr+B8RpNVplsaZVXilKAh88fe+fqLaXcfZflRa8/KrLSutvY1iPKzqy87kLYKAcoiAt01AI3NiKG60KoTJhS2IJjzq2RxHBiOBBOHRh0CItxYL5XzAXwCHmKImYyku1Gt7lIoJmayb1Je6tsO3dkgFHWbDaWFhfSON45GGxvH+ztH/ieDNYMa988WDt73Bqbl1Wvp/fysZDQamISScGdY+ZUU2I848/jKgoUqbUVMOShX00DT4tU48nOxh0M0z8+eOvCWAbGmO29m8eOPYziANxvxJCRlTPtvZvjaz/YeejpY7kcXX3nzrmHTuS4WxFriaGUURtv7fbPPLvU7aRp064sJ0KAstXle98Z5b1usvTR6I+SH2USGkL2pPJ6/gFn/Z26UIUwH7g9yhGtZV68e6OMxzExPTvYMqbCSlrx8UqrxU7jl3/up37wypXptAAClVbKBAYIziVTwCqBKLKxmPZlNojKYQPKhil4PgKVM7TCGY9fuQOMCcoFF5Ix6lNBOmsdIFKrUVfg42fcacjlNu+APjirxereV7+u0yXbXjfpGllYJ0vHs1Z3eK/Tz22uiPUr6MIan+CaKeDD586cOLZWVerb33+ju9DircTDLKWqCgiLhMcFlIGn03gxQmu18l6MUvBrAIA4N0wJA/L2pdfOPXdsXB4QBE7ptCi0IYwzFsHlV1998mPPab5vUfv3ZstnOlvv9L//tTfPPH4ibkevv/Z2S6atjuQiHvWmN25urT3abXZYowmMUa/CBQDMUvXqtW9+/qm//GGv/gc9AH4U7QZnWLokdcXzaGU9DBLjnE0M84ez2ZJZXckv65MRooy5SKnwGrN2danzc1/4xNWrG5fefLfTSu9t+wYNMRIL0bsnDzaTYn854bQsuFZUW6aLajLNipKCFZJFkaRJxJNIxBGXUV1mZ3Ut1NkWB8IIE1y203Sp1VhZTNfWo8UFQpAZjZSVwx7/1Pne1TvDq1eh0jSJTatpo6aGhBYgO2fKpYft6kNKJKHs0mk1nrz42NrycpYXX/ujb6RpCyijCC7LY3X30GdgUI93+GhuwYYymgnBlQT2H1JAweH6W5d/+ovP3929woiggmWTImk2+zsjCjSK+Itf+/bHP/88SwdaqTCZe/yRxeGu3L1xMDyYxlHS05PxJOcpaSzG7XZ6bH2hIplBlJSX2kSMMyRCktdvvhIM6yNyWR+8V3ho1uAcR4FooGZ71h7L/+chw2DWVgyKCTOr8gKhs0jpnsCZy79baVJURV7kkYwff+zMubPHrt68kzBz+Xd/o9O/s5poJiUHiqoY3NwEVRF3h2PkjImmHSkbQkjhm4EehVkNpSXM77ClYRekn9qyfqSBA9qqKjIYEL7QxoyCqpwdchY3ZfTMI0sXn+pfubXxu18308IMs9zsqihaOnFa2U397rvZH9yZnP7Yyq/+nVNPPLW+smasvXL1zh+/8F0k8ImPnZiMXUKADBmjUDNqCbVIGWUiZRSUyn3qqoCh3/wc5vot536ZJSMqy/c2B2nSybIJEhRxRCxJmvLgzlBXlkfkpd//9qPPPbP26ImD/gZ6GeW0IyGC5vHG/q3h0qnGEnR4y7QXZZUb0Jx70QhrsNSWuSTeEK32J1v+/FNy2PZ4gMf7U5P/rLcDgYYQNfXFgjmX6T0DqIfaQH4dwKzKdWTRXihzuWTYKgIYS1lVplI5ABORePLxC08+fmH6F3/24Pqb3//KV3b+5E8nu3epdZ+YOsxkBSOSGoEIhYWqIByoYOAr9M5VcCSUIuPIwXAGDuwIZ2EcAY3JClIq0xuVo9GJz3w+WVkitrJV5ZwIiOl0aBhpPvbwzkuX3UcjyPJsOLrafPK55b/w/z9x8bPJyYeVb05du7n54g8u3bmzA5SePXVccEFJZdFoZzpMMxTIuKBUCMaFNkZVyqJL92gkKGlO+4P6zvQD+EAs833sV77znU/+4iduF5dRYWc5vfP2/olH1o0l015GJ4oCXHn1tTtXu09/+slkiewdbBumWt3WcDA+/YljSSpQG5BVknBO2a23t5966vzB5MChQk2yTDdiyTk1Wn+E6wrxR1SboSTqmKzHow4BeR+jAWsqJpkD+ZpwDHA4zhMGZSCsL3bpklGhx+hQiA+bVVl4NgJPV441Vk+c/tTPA5L+xo27P/je1ms/mFx/e3jjqtrfZspgZQgFS2gBJO5EcasplxtyscW7Td5siEbMm4mIIyaFbxNSXwFw7o54TBNHPOaVVBNCGY0E8JR2u52FBX3i5N7iynCbyqVTrScuNh59tv3I09hYUAaNJff2+1eu3X7ryo3+YGotculyg26nIaVAUgVUD4Hmp9FTwLRyXhYIYTxakPHC/ijvbd3goL2XopRazgkwwl1qgXdv3/xU+fmsn4lYAuULa63e3UH3RFumUTkpilEpYqjGk+/87jeFTNfOLxlmG+vQWW9x7mIvE8wvRjAE2KkL3ctv3H74sfVpNeGEKa01ATUyz559jHx0dVJ4n14h1hTk+77lfo61z6r9V1hzDHKhthk8bM3VI8HegVm/75SSumRIESwwY3yLjoGXTbTWlvMPFARfCXPZufYFUT+xzoCy5smzT5w5/+Sv/HX/gkZNRv3bN8ebt8rdbcAxb+pSZzob6TJ3wJySgHIcUFeFMdWMPuMuo8uYvKaC4bxiEdAGi1ogm7S1UiqqFMN2d/XxM2t/pWkshL5RUerrt+5du3X32q3N/jDzGgpIXc4oHrtwZjAYNfzyEgslEioEMMZ8Eova6rIkhEVULAJE1Sgbb96gOOYU0YJBKqQlUxDCOmRGkfle4+svv3bi0Ufevf4a55KzaO/WcP2hVbYcJe206hbltCyzsrmmqgz3D/YIBxYvtpbTkEwZtJJHZTVlYJigSyf5lTfvnj2z3l1OLbMHO5NpL3v6Cx+HuSt44Ib1/nys+6xqJjBESbr+idH2y3ywJZdiy+P7dUwsHDZ5iEE+KmmFTWANCzGwSPAIJEe0eZYN9++tJgfGFlhTBOvaihdUATvrtLjwoZVWNZSjHhVTHrceudh97BlG2UwdeKZoDkhr+k1Yf+IrWzBbLOP1GgmhlhA4ZETXeDHyayTGk/z2bnYw2u8Nxvu90X5vGEqpRVkabWLJla/QIsWlhU6axp12gxIRST6tRgtLHYAiDFwzykI9olLjKh+hS8owFS4Y+soWYRQp8EyYqiQyImVFhAApyJVXX7vwzN9IGmmVVfk0I0S/+tvXPvErj+eAUdxqd1vGuMiqK5uXiiBk40IaYdz7UgJEE8OIzPNKSh6n4th5urOz843f2k9WMeqQJx4/+Vsv/09n1x9f7RwPFdcHfrwvxnpvkAQCzBLLEnniM/ruCzTa5q2TDnOS+Q2AhLBc4VRHmi5S0Ym7LYm2UkZro62ZZn4bjUVrULaP3epHZdY/fvZwDX1YUkqYH9rwtR86E2QIhGDfttG+yF73anxBLURSFsawQrUosK9qSsX8FXw2ZvyH0b5aVSkd1uBkeTnNivE018ZqjS5wGIePmdeJtAS5Zu5T8fpzWiRJkiRhjJAwzhlib3sn63ZFLFH54idnxCV0DAT1nAfwUuMlOrdtXKAEAnEMk6lL1qiLhkgZAtpL3/z2k59+9vrG64yTxpLa3h6/+2/uPvy5dWVV8OJMRlwgk6CNSZLG7s7+ufMnR2UP6zlLqw0BMFR6VdxEKkuWF6JT59O4C90V9i/+5J/+g7/8z+aSEz9hw3rPtD/Mq0rJ2rPj3hU92gUW03TZerqIRjIoIsVWZLwsZUyVLpTa6Y+yospL5Q0rrHdzIDuWzOFimdzZ3HvGGOkS4brNADO3Q2tCNIa0MkitEH+XMUq0NeBXjDgwUz/A0Cusbc6EjqG181aPDXM5P9T58foL/sctYyz0Fzwz1AKpbxtjLWM8sClC0EbERup1Rrl0PlSA1vtxYqtK6YowBowRY2goOLj70b+qNWAt6PBJgr6h/1murOBEMaRABCd33rn56HPPyShVoFqL6XAl27iy1VxsrT7RsESTQJS1YRocDWKU4q0r9x65+NDBdMcYv9rHgAHUoClht9/YXTwlJJUrqy2gsDvYs/ng7sH1U8sfCTfrA648+aH/93MCvH2q3L5M7ZgKRni8n8mcPZR2L1DezCuz3x/f2x/c2+3vDca9UT6c5qNpNcmrSV6OpuVgPN0fTJU2jFFtsN1Mm43EBsna4F7gyFF7pBnRkBDBRSRiwQWj1Pkvvy4F6j0MSOc/9t4Hs7nS2qHN2KSzp9H6yfNcI3yMUC6fZbSHP0Sk4Oury51WI5ArCJRX7/5L6hIJEl4ccabiX68LIIHWYBG0wdCoNkjCwENVWK3A/QmbpgzZ2dq9+Nwnx9NdDxCd/9u4tNNodZtLqbbKM+ut3xOrws1htHntD6+tLa8trrWVrixxuTOx7N3v7WZZ2T7GV0+0Brv5wkqSFdnx1cVRjzz50PN/hlz3j3d8cHHb+xFe+JcFFnWjh79UXvlyQYZZ59HFlccqrUeTfH8w6o2mlUMkqj8eD0aTLC+qSnu+pDvjUsikETfiOMvzwUgud1r3dvfXl7uhiujc0eGWdTiUREOgM468g8YA7t4W0p3bqiBB/9jWXFZfyADPHHap4NxjWeOnV2lNdqDUf8Uw0wB+PMTvdAszGBDWU3pBNetMQQgPBqg1LqmkcSTTRAopHFzlfFLuECitttTvEnO/LANKXCz07+i5yCTotvmt1tQQRKNdYhhLjBNalAg5MkYoQ8rJaHdv/+6IR6kx02QxahVGl3j5T65Mhqcfef74uOiDDQoBYIz2uFFZYr755VcaS/HxR5ZYxIb9YW9n2lzgyQpbWE47y/z2W5kfRyO5Li/f+jYhf9ebgX2wIP5HHbH3ih9ASNw601v75bi1vpR2pmXZ6493eoPRNN/Y2ru3NxhNMwLIQDclbaYpj3hR6f5w0qsMWhCRPLa+mpclYywv83DtQ1vIQs0+De822zQUrMWrbpIaO7ns2ud5GGhiobjt+4rW8zgpoCcFovXG5C+wn3PFMNsHISKGx/4zBH9m/VI3b5yBoqCtEOH/wBgX+Q01aRJJKSTnylgh2GSwa7WmglhjqTNJP+9tLAUhBFfllGDNBKm9q/dbSoeMhCQpLUojMygFMk2DKuQrf/zC5//GX9zceV0mcWeN6tJUY7vx9tb+zsEzn74gF2CcTeoij4H+ZmWsTValKvXOfs/FXQ7NNSFjkXbI0kqDUZK25O7WNO7AcJzlozu+qwgPfG7ngxjWD6WlMKORWrJ9MGgunmeUTrL83m5v+2Bw+frm1s4epfTYEv/Uo83za3y9w6nO0WjWfYi3zyPSjZ39P/7um6++eef69fL4iRWlbUNy41kGEDjgOLOR2Y7HmYmFysVsFiIQlHx5yutwET+AVed6MGsL+DVIwW5IbUgzj+XBFQlOK0z7GesDnYH5ewB4UWKHsXj4DwrWUvcgjiPhqYWVMULwQbaplPGF/jALJGWUMM4t6LyY1BQQ8FO7gIbQsjRk1skmXkQ+TbGsbKWIUhiSXV0W11+5tvDw0tT0o5QsnuigsXvvlsbid//ozVYrXj7Z0qjyvMj6SmU26vLmYjTZLXgTokXRasgoooLRVkdEMRJkaQP62/mpbqM3mpoclC4jzh94yeHDFkgPC+uAeDDI4ijyi5bznb3BO7fuXXr7JiH6px5tPv9YY61LqdcRAKsd0rbcjN4o915hnQtn1i7+rb/yxVMrr3/lD1/auLO9fnx1zydiYfDPO5r50tAZrplv4at7lHa2QLuGPBjuuuC3HPzFMJ/qx/BDAQ1pEET3vTpqgw8j4UHttKxfLe+ioa+BkbCZDMD/iOCs3tflnJZDAy4fDKP1iELw3uiGsaaqXLoBWkeEapzQumfJ3dl2qaOgHA4ORmWeCWrDR8VQfgfSaFICkOekKIyIiC5diLr6yqVPP/TLFvdcxGxFi6faRg8Hm1X7VCsfFhu3B0jRT5+ReDFePddstPjKidb+xuCxi4tSOOBQVZpxqy2haJik/f38pGk4x0DZxs7tCyeeeMBmRT5cE/o+XtZkUgXvMpmWOweDt2/eu/T29WceWf/MufzYSuzSHmvIfJVy6L5GzURYLO+oW9dosvq5x47du7v2nct7e3t9BuzOvd2Tawse9xCKdWQ7tKdZS2uu6RgK2WQGk50dWB9RgvK7f6JHa9Q7poBG0C9I8rK4XgDAK8TPckNaa9SC9ds4LYhgWN6BebP3Fx+MobVcTRxHXDDmJ1Mpg+39q0o7n8fQEobFyFikxvA07sRRwgXTptQ6L8oBp4rVrWiYF9MYp4wANjBJbJZTpVCmSApAYl9/4fuPf/7idLxJKcSddOU8UDqZDsq1C4uV0u5OoqTRjtOEAai4KYBAt2jeuNS/+MkVQYHHkTZGezoksURZrJRNOdeM/f5L/+rvnvhvvA99gF7rA/UKf/j93CkejqbddlIU5f5gcuvu3qW3b/6Fn3n6Zz/+mL73deeiYLb04T5dBudfLI8kEwTHPDv41WdgY5veHVpC6fWNrZNri8Z4w3JmEFAW4OFnwPs/AtaRMsyF2hqZ+ckOW7cn/bMo1gVbOouG3oPNmkq2HjD1BR0P4oIr9KmGb9rWQJsTNksWwwofG0WSMw5+kY6y1U7vVhKkJysQMcoIKGBusmk+nebET4IAZ4TVEvXez9JgWeBzAocLJWCc2DSFIrclWmCEGjLa3cm2HiftBDEHhKSVrD0sJjvV8O545YkFKVnkUBwjlHAijdVU0M5aY9or3/rewcVPLLvPSBkqS5Dt38tabUmQDAb52srSjcF3eqPdlfb6A51i/eDCa/ddUxwOJ2kilVKDcTaaTN+6evvMse5nP37RGUJ6zOU5Xq4DDiPnIfeBkpBzUcJloxX9tU+3WhFnBDfu9QgBM+dlYq3gjvetjZhTdBAPt07UJVWvkE3qB7O6gqecBhljB35cwkVDW8fP/wcWFPP1Rhq6PZ70QmnICRgLDyA0t/0/2awrBFIIzhkSFyW3Du6V1aioAhgHa2hVOucWR1EshORU+E6od96UM8Y5ZSLMOjLORCSlHwtx349jiGKUMfDI3VleGZC8/o1vtdKHtM8rAUAkvHsyXllvjzdz52kDC80lwcCBE0OAkbXz7btXRy/96529u6UpoJrA9UvDjesDQtXezihuJZDgylrj37z61QdoU+F4X4wF7/k7NAWzvGikMsurotKbO/2iKn7xcz9bs+gbJ834GmfpXMsFj7C2Zl9rN2aJfvgY+6Vn+Z++hbt7vaA7rw1lFG2t0zYn0B7aJ9Tz9x4NeVWqWo4xrHb2FCgaVDjmYoFekCRIa4HfLxNiqd+wMytmYFibZV2i6RVEqKd6ugc2EOV8tYS67wcH42eBmEErhdjceFerMjdEcoJWE2Sc+y2CDLzMv/Br5Hwto4ZqhDJ0mYHPE/w9pF0QNSSJGGcmjjEvCC3BWMIEKqXf/PqLF//Cs6PBrTBeTSQsnIkn1wcHN6dLJzFpSV9LI8obussSmV070bn91mD37sSZnKQQQ9qMiGALy900kS4skurVO3/6V8nfch/0gZXg3ycUHrU3wNnMsudiK2NZXqi8LHcPeqeOrZ5YXwqXnYqmBu4R84z1N/sTJumOMkv9ZdR/7iI9v85evqn640wysMaYGTuPgztBgSYIQfKa1Pmi7+QY/81Z9dG/P52T7UNVeyYNYb25zUmIgbmD1H3SkFOG8Q+X5fs2H62pXT5O+e8HXZy6NgqEC04Z5YzmlWom8e3NV/1TaKUR63J/UDGifhGJM00/qOigLROCCiq5CeLeYUbcIhjtd4knjDOSxDDmREqitbtzRESGu7t339hefqRTFYNwyyqoTj600OsXg51MVbrViaUUSJky2mFOTarciIRHS8JSQzmJ2qK7lLZSkqbMt6SwPx4nnFzbfPvhkxcfYCnrQ9Sx5rXovCilL0tWSmVlVVbVEw+fqlsxgf7OEoJFHWfDcsBwrQ9H7+dHiGXmzKJeTOjLW1vnTq1ra5i1fqD4yFIhd9rvyx6AzEWY69n/I9A+jPPXxbCw04LWRgZB9iXgbxtQ3Kx+4Q0PgrbVfBQ/CBD5bwb19iA3gUJyH8cY2ooJfmvjZWOdvVMgGom2VhntgI83Keqp9kIA40KmLS4YYOZiY0BaMynJoH0hOcYRrZRJIlCl5YJY4+4YIeHWa5cW17/A0lybMvTXeIzthVjG3BZk59qwtZiki1IImmfVvXf6964OmytpYymSLUgbvLvUaDRFzCRgFX7/LK9WVtgLr/+eN6wHdryvYdFDbY+Z/yqKUkpRVqVFKEolhWg2kkOmVeCTGjMrnqM9oqR1ZNlEXRkgtfK/bcZQbe9ROFHp0hrwa5ypd5NQcx/ql4fDETO0tB5QOPzEM4rErKUd/GKoSWFtQ/XaIpyhMxIW6NdVDaAzZeP6/0NVbN6WqeVspOQBkwEl/XFvq78TyZrM4GdLfNfSGM6QCcosixLJozRqxD4vLRBt5ezQxix0HcO0T4jQJE7YJDNxAtMMOEfD/VYXbrmlr339G5/5q78wtNdc2EdSatVptRz6a9PF7vJ3/68fgCSWa2IpE1wuxqrUSUrXjjcbndiZOQUEI3lCsES/fXNaFq9v/amxf99Z+wNyWu8L3o86ibqyFBj5nqVOjDZxJOfqCbX1mIrYqq4/+qAER16D1OuTQnA8HJumxKS4a9AvGvUdZc94dwZgZ5NcpJ5NP9TQwhnHft69PlpPnQH7GY2wLofVYTUMbcK8xRi6OEeygfmgyPyzH24lQBJ5d+TTBPb21Uv7+0bbtrZca6I00Rq0Ql1Zv6jcqsqUhcryPM8nZTHOsnI01Vmm0KBSVimjldbKb6owtlLIhfNwnGEcARM1AZACcOFi5vd/9xvLnQt+Tb27acb5eKXb0lW1fq7bWu9YiAhrQ6MhF9LuqVb3fKc40N6T+rTGn4DSKD/F4V6gP5lgNLl8/eUHyJ95X0W/H8rzZ3EmlA7d+eU8L5S/SnXZylqNqgSjCGqwRyWK5gcefWM60xQ51cl393voxV6Uqc0ryLnjTH5v/qFmU4HW+5rZakxCDtf+z+0M5g/hPXtsj+5GBvihlqg/7MywghXPpgjRCyQxYywH9vrVF9AUuzumUA0NkTbMWL8sU6OqjFKmKk2Vq2JSjAd57yAfjkpdGlOZItNZVmZ5WZRVVRlVYaWQMi4EjyJnWzKyQjh7ciblwD4yjkpPv/kvX1xKznMh/eZDcjDcPba21B/sn3r2hFhtyOU4XWu2TqXrDy2eeGJNdOR4s5pMTGVqDULwy2SVcc630ppG+OLbX3+Aen8fpNzw3iV3cSSV1gF+BO2p3mBkbNj2ELgHTVtmqDKiSrTuw89XVNqZGuTR8sFc/vHUAuxv36aU+yCCfhbe1Bjc4pEx1JBDzP6eW1uYP4QfvlPwiBPDo4ULQo5Y1uzv2cuS2bDqbJUBzub0jWWccsGl4GVZITGvX/uT7qKJZNHfyXc36WgoypJbZNag1lhVtqp0WVb5tCymhSqVLnWRlUVe5XmZF1VZ6DLXRe4yYqSC0JjSJJIsllQwEkl0hsW9fAggUOQMhtvF7/2zF+RkLUnahKA2ZOdgpxM125341OOtM892zz+7cOL8QtJyEfv448eItLvvDrBK8iI/Is7J/ZZhqFC/ePlrP4Yhvfeg5L6z+v92wExp2D1upGlRltRTyBMpXcLCxZ2t3RmiBtZ9RFeVVSWqAlVBdBU0Vsx8t2BQ7zsSr8KFZEQ3cReRam2Nn5cPYp4hGtpZ2Aujy7MCxOzrn+EX/YGHxNTwblCXzbGWk0dCjuwbm0sJ2tkIdk2LsHZuVdZaKThnlHOmtHnn9uul7jNqZaRb3SppFdbqsiJlAUox571MoGGh1qYqlSqUKrXzT6XWpVGlKQtdlKYsbZErVdo8m4xGB1YrRh1YEJ6v7/kcXrkJ0CA3mmrD//DXv1XcEidPPN5qrfCoVRiiJu7EJYmfWApMIEIk5UsPLTVWo9uXNmHaqAp9uHmdUK2hqFSGB8YqeEBO6wM2oX1DZH5tfB4uhKC0aqYRpVRwfmtj+8zxZQ/GiUiPmeWLpn+ZCAPoU21goXAZNr7XF5zMefHBR7jQ+tBScX13b7HToMYlYZ4n6jy376iAn1earQeHuSI8PZoU/NCZOSqtdJhJHi4nmC9jmUvezob6PQAP2pN1r9p6wQhjMZIijoRv5dB3bn2POJhOvDKyA0OCGaA15g840wuF+A0d6J6rjddUYsRvP0RKbT1O655TYZiQMyFpIX50J9R+wzABKwoBhhnBCZAX/vmLyW8nZ58+lXSSK/fe3Xp368zz67IJaTtyZoVgKZa2TIRcWF+QjcnOVq+ZNugaAak88ZUYv2Sdx3xnf/vk2umfmGERUvccbH39CWk10rzUnLM0iVrNVBsTyejNd28/+fDpkJbHx3+mEqnefYUb4+6yGULGMKtKGVJaM+gOMYy7hMdb8OrNO4vdi55twpTWoark6QUWKAS1MjrXbgndaJyvDwtfZ0vm5iol9zc655C/Frwlc6kHX9fwXtUTabzmsK0ZpmYmKAIeDwRIIKS4vnEJ0WrtOz5Yax/WnR/0e+aAGKLR2Y9RiEAtMQyJiSJ/bihSZ1v1BArAIaQLfFnmCV2zqiCoXFYD4VxRlJDCfSfbnb79p+/S5a6zQdG4852dtH1SSiKSqMYnSAtVJlx0Oq0oLaupund1Kjg2F2TSiWQiFKp8YJI4fVDDFR+iCe0dRu1cOq32YHg3TmKt9Opyd2Nrnws5ydSlK3fOn1rtNGKHbVeetQsXzOCqze9RXRImkMUAzGXZakyLITDuyfI4v9Z+7DlfojsMnla6cranXZLIgpqiv/7UL882gZlVi2J7NeIjZkUOsf3sGh3KMc+xWVgfgPNv4jz2eWcR6PSmVqhxxuWtyhptY8kjIWIp8qoaTodXb15iktDAX/eva701eRsDizavuKApYxqIst4EAbCRoqqs9bUGoN6bg2XzrcahO2CJFDAaebKQCQgSskFKcmKTyE9rCG/OngFZKdpsGmq1jd/+vdtP/v/OpicrEQvwrQakUBgdU55Ekfs0nYhU5OBOf+Ny7+PPPre0uPjkxz/TbS0/qHLDh6TNIAvNWgJkZXl5Z28/TiKDZGmhM83yxU6zUuadmzvdVrTUSV04Y2269BySZ+p1I3NATLQ5eN3uvU5pKJ8D8AaRbZAtkK0nl5ZfuztsNmKtLSVEa0MFrbcMQ+094VC7O+jZHLUqqF3PIQQn98t8kyNiND781cSsGpsHwSNjrbYh/bdBcEsb64UXbSR5I4kEY1MLL776B0qXhCJlc3jmzpHVhHGgnjYPoIxWRQ4WgVLChY1FiOBUKb9qiiLnKDglfqOY0dbPhVgCpqq4Vu4DV9r9Xtk00koQQRyeR6QSNFCSShxndpLRxRZV1Eiplb781dtPf+kMnCTOtnwPiiAprWGKRIJXpqIxHHt04eTZzio98U/+w/+NUvYAdY0+FG2mlqcNT0/jqJEm40kWR3Kp07IWi0q1klQbPZ7qqsp29ieNhkwkbSYyiTklepYsgCWCLT9nO48QNSKMSe492SwOtJAODm51mmecYQGplBZ+V662ytdrAySdJYNBlO9wo9MhHJ/lje/9SmbGNpstq4uTWJsUziYywliRV3Lz6yqD8hu431020tjhJALfeOm3ALAqCUjgQY3VOVCw6BdSaENqsg3ySIeaBvdkRVVZrUIRFhlFNH7k2o9bGAPKYJRinrODA9PusukEqgqNEuNRB2WENKgS+v6ElCSKSFERY+1wyjptorRNE9WrLv3urXOfWV19usViTsOHADAEC2Ul4951ms5C/O7tF//ou7/385/6iwTYh5tcfl/D+sAHzPq5FghZXVqslB5N8iiKVhY6B8PhaDptNxLBma9iQpah1jDNK7S5F8T2moheco0BCiaTeN3vcFQED2emEciplTQrlMuuKRSqSmLpRSLr8BaYtIfV/MNQN1ckATxSRbXk/iJF3coLUY/M/jn3VWhm82XKC03pGbSqKqO1TWPRSOIkknlevHXz9b3JbeZLAJ765+k+HjSVBZCCJ2nMhUVitDFGc+tQv2FgvRJgUMXxkRyQWhfDGLeUEWtpWdDhkGSFSVPmfSVTOhpsJ5akyGftUAY4nEKj4YJuI8ZRZocTttDyghXMNlM9GN74Xq+/kZ3/3IpcFER4p+R9kvH1IQLkYDQ9fqb9P3/5H3/xp39JPrjK+wdS9LvfsmYlaY9N280G5+ze7r5FWkeHosyLihDgPHTxcT6poi3RBpQm2lBlWKXZpKD9sd7rq97IjDIzndqy0lESry51Xn7jZru74Fsc2EhiCrTSznfMUfpRrQg8VOA6/BvnDmkW+EIFwdTuiRxOic3tyaInodtKhWFDrxzoBQSVMtOsMBaXOs0T60uJjPIqn052rmy8PRn3wzpgr2nDNBLt4yDnaLQupzrP0WigYCJhGYQxHWIs8VDO2bs2ROvaVRhNJiMg1BIKlfEZuUXBm71Rd2oS2h8xapngQgCMhmaSQ7NDKPeBwBBtbJ6ztQ4oEraN4bSsCGy/ORzfnTYbMu1yr+ZC7Kz0YzUqZTY27j197pOnjz30QGIh/Aj6WLOn03qJCJCFduvJhx969+bG3qBiFCRnwKBUJiuUpzpR4ZWK6f0NETxE1qE840kmkioNe7dHkbBrS+lwlKWJoM5p6UQyxnhZqflHwDkrnRwiLHKI0Q/tbVaRInOoPvdPdewzqOuv1hmW8dqklQqClMZ6O6u0UlpK0WokjSSZTCYHB3s/9zNfWFxK/sH/8LdQgSbWr3d1vjx2UNyXuDmyiLDQ7K5biMQZgK+NBZn5sPiFeuqGUg6HRQkySsdZqGskWk+eOvepx9eP/8b3XlI2sQc9HO6DRkALvmZKGAOMbcO6u7Y0OBzRVpsWxHQaRBmSadKV4z55/WtbaYeffLyzfL7ZWOQARmkscnv7xsFzF55/4twzSB7YtvsfcUrHR2vqBwPc/RdH4unHzm3uHNzc3Lm3O6oKzRj1GkOScX/C7CwKhblQMyt/uzscOGdS8poZziCOImVJXk5u3tt8/LELlbJZXkVcMsaNrY3IVzACQ6EmNcxyQThaOw11oXm6FxJPl+f5wlgtWGqMtiTU+pW12rsrD6f8Vi7jvqOULkplLDaTqNtOGXPed+v737p8+109GT+VHb/V352eVajBFkZSWHsXhCFNIooGGXRVvkSqyJp6FoRobUMhDl3grHv8BohS1Kup+YKEsRrxwvHnJOPXbl/6O7/yX1Abff3tV3dA2MZxMslJqcBqLKZUVTZJiZTOuaWVzTKzM6arLTCUGWGWmmZvKDWKLkNkGTHX3hpcu7xPdBUllCTGElhcbf/1X/u1bnNhvrDix1c1+tE3rNZFKeC+BOjOzsm1pZNry/3xeHOrd3Nj7/bWTp65256yWohjPsZJg0AHoUFNGzwbM4p4qxE1GjIrdJrwxYXuna2D/YNBp5WMp0W70fDD80xbHRCmZyP7Vn1N6Aty8zPTq4tYh4EwgCqDswJViIMOSzl3NesgWeXMSJWVrkIUdEjLG1ahONBOM+40G5PpdHTjbfn97xxQpnLyvFk/Pcyu3J3cOqarMUom5JAkhq2fP3/+kz/VPrauEvqvXvw/d8pNQ437xCiQmLKASM4a9R46au+OgRNW+GWPSvy9f+e/+4f//d/4m3/pH37s8ecJkF95/ou/+fa3dntgE4mGWKNpn9mDPmWptcyh+EYLtMJS6Wt76WPHq6EGFtslVP1RvCQaJyMEqiujXAoS0amJF6zs4mKX/Ytv/der3WNPnHsmtIB/PKP68QwrWNesb8tmW9rIQqu10Go99fAZZcxBf7h7MNzZ7/cGo+F4MhpNh8NMVdp6T+ByJ2daQggRR1HkZ9XTWHTbjUYzaUTixLHVqzfuth6/MBwX3U7ZiCJGRaUVEuSzOfx6WAfuK7wfQqy5VYUyeo2raoKKDn3u+qvXYNZBysGUZaV8scG7K1OULg52FtqLnZYUPB+Ot7762ydicePmxs2d3snVY0+cfTi5cZWqyTtNXW7hz/zb/8Hf/Pv/UWd91Vu9u/X+3K/+6r9+4WvXN65mxZhS8taN1zbzdwig0RQJKmVtCTE1gFI1NGNoC/h3v/T3BMhnn/jpf//f+s8CXec/+dv/8ev/6NWCl5OJ1GNFDKO6ZasK/h/23jRGsus8Dz7r3W+tXdV7T093zz4UORyKpKhPI8mfItM24sixAMPIAhtZYMmRE9l/9MNCjMAJENgOsgEBEjgxHCM/AiQRZGQDLDOyrIVDUjPmzHA4e+9r7cvdzrnnBvecW9U1Q4qaaZIjUum3m8VbPd1dt+u+95x3ed7nSThEegIx0DRkuzHsJP1I+AF2NB4CRC0oRH/VcyeM8nFTTkMlUs5FhJuBpXOAI4/t/Muv/8Y//8IfG7qpKiZvhz54FM8QQrwXS5+MFwSS7YF4CDMZbe8O8cVRFHl+2OsHzU53t9bc3mmurm3X290EIJo6lmbbVqlUcKx0d2w0W1b6tFguODMTZQhgu9+VhUQ1cwEHaKoH3of70kC5/YJ4P2BPVA2d8/QgfYeztSp1o4jHfsDCIGKyfhUxwTn3vAgAdGJ+4tj8NOdx/aU/Ia9/Z31z/fKd1XOLpxyNbNy41eXBG5G/MTOfOAu6U6pWS59+4dzP/KUXZmaq2buhKqaJaHdbn/vSx9vhXszCJIbMjy2OZhtkvG1dm/eCsShJ0NPHL/zr3/rPF//iW0+ded41C0Pxz5de/sY//Ppv36hrLMS8w4QfwlaDbzdoucoiJv88BpstEQUgEaULS96eL0e5BdxqAcGOfXaieFTD6Q0NAOAsYPVb/fwkJxpeXBg/rv/kl3/xn0j4oeoxgoP5Fnxo7oYf/qv2gU1ygHQQVw/wnDDDskAICMamoeVda3ysuDA7OTtVyeXsWMTtTq/X8yPGPT8IQx4yLssLYGe3VikV/Yg5tqERmgAYMQYywafRElYWoQ+LCJn0ZdY8BvtBlUwAeTz0pyHze/oYRtwPoowbh4k0Nww4Y8J1zKUjk5apdXe22Tf/e2t549qdVc12jx1d6O3ubdRrlwDePfZ8/sjTmlOCRO/0/DdurHzze1eW1/dKRbcylofyjNd313/t93o8IsoAABqISURBVH55uX5vojQ3Wzpa721XA+3cmnUaThrEWpnsjo0tvnD2r3z1S7/jWvm56SWdmhkCQN4+89MLvVptl91sBphoBGMKOU9EgoSQDcU09oUUwZgBLnijX3xikvkR1hHO6aDLGmu96nxBzyeQQKph09LyY7S/J0xHhIxplU5tzXti8VmYsdQf1BveO8cadTFVj8iy78zh5GYF9wGZ6Qt2+/6rl29dvHzrtcvXr7+5Um+0PN/z/ABjHDKWLiRcjR3DerOVLxajiOUdm2ASREwMO9dZJT0bmhhAprKeiMjGUOVyNSguxLIuxLnK/mS0zrmqL0Tprsf8IH15PlCs8MOIYDQ9Xp6dGAvCqPW//mv70uXtve2VkJ9bOMO67d2tre8C6p3+eLF6NFHhI8Ya0Qmlft9f2967vbJXb3bm58Z1jVy9efXc6Wf//i985Qs//w/y7tidte+cvqnPMGdxaoaB2Pz4k//0K3/wqRc+W8yV4BDrup/9pl975tRzb15/rY9rbR/IoSECNJLU27jgSAQzEhjgNDOIkn5MKDQmLB7HyCQkr8fNsL7aP/bsFKIxwpBSZNg4VyJ+C0ISYi3pkRXqV+YnTwzHHQ/gGxDA996xMu8CIywvGbwODWhckiji12+tX7x045VLb16/eafe7EqOVhlcC+F5AZJNfz/wGY9BAnqen262hOgaMTRKMPXCUOzXOwezYpkzZSCBrJSQqBqVAuHIakK6OCVS6SSNn6Q/CaV8kS5XfhRKxqV00WKxH0SJSMbLhYW5SYTg1ne+EX33//R2W680O2MzR4tY7GxtrvjR3pkLucqUHMCQqYq8HzBCVNcBwo1mp9EJaq2eY9GnTp85OrWYc/IAwqnxadzRtJcuHVtcKBacyLL+3u/9h0K+bOj6IN8d1FQSMCTBQRBdePLT7d21Le92LyKEaMTAMcIk8CSnG1ScwTh9z+Ngp1eo5GhBi+MYuxopGGEz2L7enDsxrjsCwIQQaFrYLcA4IH7kGSau8WsGn56uzKODRvHvy4r19q+TseSnj+2u//oby/dWty9dudHqdNWAjBqKUb0PmKRxGGPcMi3P8yPJp7m7u1cu5yMWF3MOITgWIIwi5UmDHRAM8C374jlxDGQ4BeKRjU85TbZERUo/J3WpKGJBwPwgYqp7k9WuRN6xFmfHS3ln9fadq3/wb8O1jdvNTq20OGdAWqs1u521qeP6/Ck5voiJHO5J01yZCQOJ2SrmXVtDrVqj3YuqZaeQd5HSZQUofPVa8+LL1co4QIl7/syxn3hxGJnCAXAaqMLMAHoPASSEvHD2gpvQ1Z2LMSXEQhzwyUICqRFGAhAJX9IIlvdUd6MxeWJCJaQ4R2lO7+/5K5e2T56bM2yRQEEJcmySy2MWkm6v5+S1td7laePJsltJ9l37ES/4exS8P4ylF7/d7d+4u11rtl959UqYek8kY2cp5j4gT1NpfpIkhNLqeCWKQiGrjhqFTz/zZLmYW5yZwBg12p044WQwrJfRgYD9Lk8mpBOLrLgw9C2V68liOudcLVryUYbtMmrnXILyoljXyMn5yaOzE4kQ//i3fhN02sfW7rWnj3vjZ+P6lcLd2yaAuy98no6V91HPQ7Q8QiZB86I1z9puFAYJrG1vTk6NO65RsPKs3wxbu+svv2Zb7pHTp+rN9uTf+IXzv/g3R0DScJ8LZb/dMQLYSJLl7Xv/7L/89s3Na2EcTpuLz538zO9+7T81W17ChPAZ5BH2en6nh4E48/ln9po1pNEEQ16PvI0W6Pc/98VzVjUMuWdTbGDh93m7C0LmnT41S73xL3zi3+Sd0gGqDw+rpfPuTY3zBRG/t14TCbxx8y6lGEAqK1MxiWOOBRcCywtPJKxATrWjbruby7sIgjT88vjy8gZAhJLa7HjJNu29VpOhROqmAjgCZx9xLEXql0GpsoBdLVrSpaQuU8wGDZwgiFRFNJaiNxCgibHC1Hg55vGfX3zd63vNel2fOpY/+xns9+/cax9FWnjmWbM6LldbOXsth1kTpTvut6Prr6153bly0Ws2KE3mbCfZWgtu+1t+V0DQb3d4QuzpI8Ay+5vbYRQN5h3vGzt6+0srXW1+cuFf/Orvp+tsGBScQpIkN+7d+PrVV7v9KDEx9yAg0DBQ1Ojd+J+Xz33+6c1OM11Cpwg2kLdDv/bvXvu5X35qcrHYDVsJBG6eIgQ837l5Z/P8E+Yf/tk/+tUXfxcjAh4d9vDIvcKDmTqp5c29JIHLK+vdbl+FITImQSPz7IRQYpiGZVmarhNCIEJRGDHGdI2api44sywr5AJAaJs6hKjT97OesYIhCOUWcVZEkLJesuaZ7W6ZD6ltLpKF0ChW+6DvR2pMJg3nIy5EMlZyTxyd1DXyyqU3r97Y2Lh7uTR7ovLk/y9VEIPlG98//Vf/jj513DQ03dQN3dR1wzDSA8PQWG+H1ZcREQEPjGYL1DZxzINWu9VqBL12EPi3en2tMvGRp552LKu5tdFr1/3l9akLF8x8fjgmOSQ3HLmuEOzPiKhvgBrWDN1SqdInzn3s4pU/24u6MYG6pQOCMADYTs+jubx38rlFLw6QRrCtIZ0Kqr3xrbulvHPyxFgUeQghXccYAQTo9nZ9dkFsrPZPzpx/1P3wYWXl3r0lEPBYbO02MaF3761JwCQasMTIiCTNbpBGieVYhqHPTk8sHZk9fvTIwtz05HjFNIxur19rNNrd7vr6RqFYDFkCIcjbJuOi6wVcyN1NQn5V1YBnaoYqPJefnEuBgtSNmPQk6WFpmBVFPAhZlLWcBeOpV7m2eWphKufaF1974/KV2wCh2uaym6/mixMAQULozSvfPn7uk4NQSt0ZMmLHKA464eby7Te+X2+08gme6zdaiN4ExhvY3mg3NMauQHjiieeeWVhiXufujWtbtV1AtOnS2L1Lry/95GchwWpYdhiwv2XBGHG10VQbQo3qnzj77CtX/7QpIkGR5mjYpFgkKEd5EDXv7Z58eqGfRJhgZFFECbSsNy+vdGvR+XNHQ9YFABCKKQKJoI1WW7NqOXxiLD/5AXUskADP8/sBxxhvbGyhjJNj8CgvhkapaVlHZqfOf+T07GS1WHBcx3Ids5DPTY2PLR6dm5mZtiWVrO8HhmV2/ZCxuJR3wpD1/VAFatKZeLZEqTpCFkXF0quk6KF8jKLUq5jUgkrD9jA9UC0BidvEZ5ZmCnn7z7/7F1ffWFHXmFDa6zTKE0fSK0nIzuqN+WNPZYvtkEBeEoVv3vz+G1dfPvnsTx/76GcqJ87tjc13jn/sLnHsU0/sELpdOfFMpfgR0+g39u7dvrHdbtUxWZpZzOWcnZU75hNPjE3PovvWiB90Ue8boBoeuXb+uRPnX73+rXrkQwI1m1LXoElCcjrnor1ef+Kjix3mQ0qwSZFONcfdWm1cvbTx3LNLmKSBLqFINxBnIAFsc/fW0ws/TTB++N3wcWWFEv3GGO96kUZxo9kWiVBEMBgNCVywZVrHl44enZ2iOJspHfDBwjBK90NCUDGfm6xWKuVyEPixAF7IPM8vF3NBGPX8SAmuslgobVKW6abKRYsPNVRjufepWkPmVWEonTFD2ACC4amlmZxjfOOli7fubCKisBnAdku+5+VLVVUAMJ1czJnl5CTLjZInUDcKfOWlrz3/U7+UG5sybANiRN18vdmgpikgpuXZKZR8HEUoCVdX7q426tuEPrlwploeC/2e5/fHf+IzE7NHkmHj4mEvzjAOSt+1Yq58tDx9Ze17fcATBKiODUeOvjoaA6K9tvf0ucWuCABEcoKR6OVCLwq/f3FtvFhemC9HzAMQGgbp9jwzF1M2MV1egvvNlB9+Ko/LsWC61+81OrquEUI67U4W5g52QZ3SanVsbnp8OBg/FOkJoiji8aBnk4bkjHGEiB+EPGYJRJ1eP++6QRB5MvSW61am6iuLC1zK+ypX48rJYrVdputZHCmB78E4BsVo8chUzKNvvPS9za16GgPiQc0XoXyxquJyCIGdK1tWTmmXowGvvBwR4Xa+OjF1pFCwOecwAVIw1ss7biKAy/1PNm/k42Bvd+ve9s6G5i7OnTlRzfuNXcj72wh/5su/jikdGax9+IuTFabVuzc3MffE9Mm12lVf0pRgnVBb11IvJwyJxlrtI0vjWNfCJMaEEI26xQKj4OZKY+Nu+8j4WDFPecJzrglhogH35NT/t1/7eIjzeFyOJfOcIAgAxLmcI5Kk1/cydmypZ0IoqVTKlqGNzhpCCONEeD5LsiH9dEWRlHlJp+8zLm7eumVblmGYrU7HNk0MYd/zVfAuY3DVlokH0tGZSi9XKr3SyRiT6OOMcR2ZGpmsFG/fvfPyy1e8gKv8AhMCM8/BcBD7JFJWDCBAUMbnLf0PywNarU7lXDMRqft2e16r3bEtUyTCIHTh2jfnAAyD3q21tTtTC+jUBQZ6Tnszbtc2et4zX/nN2VOnFBLkALmYeusGzL9gsjT94lMv+t3NWKsBghgGmmtqFNkFbWLGPeM+Y0J/di7XDiNIEKbIKdpG3gx01Okmu2uR1wkNnfY6fKn4qaXJpwYUww9xBo+r3JD19KpjhXtru67rHj0ygyBcXd/MKF9kLUrWrkbptyUDi5IlGRl2BrI0JZmuURiK3d0dx0xTsVqjTQkRMYhjvs/KlY2biiGvkALuCVU5k0+koAGiFFsmjXzv9auvr63UqGaooTXJ5bZPOw+GvCFK8HlwunDkbqYYGaYmBE+A6Hb77U7PMjRDI7qud69ePWtgzoP1zc3N8dnJj/3lu7df3d28OReH+XLl6S/+xtQT5+p79Up1DO0rDB/Q1BlZuvvrP/vVb7/5p//t2n/0ca/txx7XYBRO2OTCyRfOHvvyv//Wv3IWYSeIb++1AiCs2MSJ2Q36Rybyz09+6vzUZ3NOaXrsyKM6+eNYsRTAjjMuVY1Ard6xLKNUzJumWW82kwGZjQAg57rwgQn5BEQRV0fKwSRMLwk4Q/J4c2u7kHMMnbqOHTGmZqQGrekkU2y+HzKaZEIVAqThFMYYch52O82N9Q0v8JqNbswBpkQuQQgTgjMySIIkVcuQ3Q9CSBRfoNzQFWGlZWiObUAIoljs1pp9L6iW8pOVoqlrK8vL926+0t5am6D4agLHX/zrHa9JDehUpj/2t774/N/9FXd6Wp09gkA39HcnBj74QXnTzpUXPn3iZ/TI5kGdJPWSg0RP+2uf/LWiXXph6VNj+Mhm/eZsBcwUi4gkMeLVYiFhiYXFz57/2wW7hCAcZVx5mNfOKu/vqwkhGIuGEsp7jc7GduPIkSmMsB+wGzfv1htNOReFSqVCtVIe4XdJ/9/vBxHLwOFCpAEWj+OOFwRhFMfJysZGbW/n1PHFUrHg2qYAoNfzPT9UPyKEKj3EPFarVPrBGWMsShOCIPD9IIpCCKHtmK5tdZqd1fWaZblKoCBdyTQDSMchmMiNEdHU56CavZH7YEYeKemcLI2SWMSNdr/d7Y+P5Y/OTuoU3Vlee/P2xvrNiwVdTK7cnMU6+vlfKlan7t27rmnk2eefO3Fs3jKVOjTQKNF0Uq1WIHyQNeMANogi9tknOn5re29tdmLB0nKDgnKSAPH62it/cv2PWuGymzcExlGIQTv56s/9kSK4HNgjOtb72tKRbROWLSIi7nb7a1u1Oys758+fKbgORLjZat9dXt+rtRAmhbxbrZTlhcvcSySg7/lShSejJ5W7mPDCyA/DKBbtdm9za72Qd8erFYqRphOCcCyE54e+H/b9IAiiNANIs79IGWeRFO4DlBCqE8d1GGObqzv9jm+aNiZE1dko1SRdO5EwV8lTSnAG/8rquxAjZBq6ZVm6RuNYNNtdxqKF+an56XFdI/dWN69cv9fu9Wob2xrb9Jq1M0unZpfOFibH641dy9QWFxeq1bFqJTcE8WsapQRXx6vvbsV6wJIBEVlGUzfK+DQYEEi9oOPVb6y+tte5J5Joafq5U7PPHSCNeFyOxXgYRUAKEzabLSEHj9a3Ghcv3froR08fX5wjhGCEOj1veXVra7dGMZ2arEoBeDEcCg6CkGdM8ELi9bLtjCmG65C1Wu1ms0kINgzdsY0kI/BQ9c8ojJS+F1e+BYDQNUo1kj4JebvZDX2upy6JhyKZaR6enli6y2XlBKDYBjK9OF2jGtV0XUMIB+nqF01Ui4tHp8dKhYhFm5s7b95Z3d5tep7XqDWmy4Vrr/yPjz534fSTz2BMbNdiYX9yvJzPuRMTZcnGm/52jBDByHWdfD530OD9HewHXuQREoJkCBuQqgoH6EE/LscSQvi+nySJ5wVe3xsOwK9vN7757Wtuzj57duHksTlT19M0UIidvdb61k4YRnnXtS1zIKQDJGhYqhGpcZts/kYoTDQXCYvjIGC+H7XarZjHGXBGyPQw3UFZHGeoPx6D1NUCpgiUIYQJElDxSShkQgaay4hpFAcJklcdY6JJUlsRA7nFs4lKeWF+pjqWj2OxW2+ube6trO50e14c893dXRAnczOTE3nrD3//d37lS18xnZxOabVSohTaJh2fKON97TtIMKQarVYqCKPBNXoM9g4X/yAn8JgcK0kSznkQBMqxlIiM+vr6duv7r99qtD3d0JcWpk+fmE9vX7nPcBbv1ZuNZtsPAgiRVAXUAIBpoJSJFO7TLqigHAxCCcUMwxWmj0mFZi5HbqQ0IWdcwtu5ZJKJEzEYzN+fyN+vpKnYXMnQq8o+5xEhqFRwq2OlqfGxfN4JwmBnr7Gz117frDWaPRHHAIFmo97tdCcqlZmxQsEyKEX/+xt//OJPfc6xrVLe1XTqOHqlUkADNIzi5dV0rTJWlunCY/OqBy/X4ODgr/7YYDMyOBRxv+83Gy2RDGUm0lPveeHd5Z07K1v1jicEoBhOTpTPnjk6PVnJ5xwi1W+TNMwKmq12p+/JXg3XKNUpzUqXAyDDAJesnimqFpHcx/mh0FpKM0fmhWLgmEpLQEJ3mGosyjWO8VjTiGubeccqF91SwTUtg3PRaHX3Gq1Gq1tv9GqNTiBbShjD0PMajbqIk8lqdbyYc20lioIRhppG8nmXUmTodGK8qBsaHFJcStdyc26hkFMFssEF+lDaY8oKR+nRfN+v1xqxSOAIXw6PxfZua2Ozvr3bbHW9fhBBRDSN5HLmzHRlfrZaKRZcx7JsHWbIY+gFfr8vkz8mIy8hpwMTIaMhpACoCpIqBjM6+7KXw2GKWEHB5GfqbhBjTAkxDM00DNMklmXYloExTj277zeanaZM9+qtbrcX+H4YRZwLgCCIOWu3274XWLo1Xs4XXMvWsMS6Ekn/j3VDs03dtvRiycnlLDSqMgUS3dCKxYKhG+DgddEPkD0+x5KW7TFxHDcbrX6/D+6fMQpCtrVd3621e/1ge6/d9YIoTtIELUkooTnXzhf0yerY+FihXHQsQzN0TZOKIxnXsEytWbrSyCZzrBB+SQZ739fYyhofqu5EEMIEU0wpxYqSRSRJEES+H/T9oOcFvX7Q7fnNZrfvhxIGyCUaPpaVBxgEXqfdY2GkE1ou5HO2aelUo5gQRNJfjTXpWrpB8nm7Mpa3HWNAL5uRAximns/lDNMcUA1+uF1K2WNGkA5L8OlRGEadTsfr+/tpiJx89YNod6+zs9cOAu75fqPd7fp+z4/Sa0S1NNwBgBBoW5pl6IZGbEvPObbrmo5jGbqSIJHwwUFsNGxEDArxSopUiDTikt1DrpAOcRBF/b7f6wcSDi0bPjyWSSWT4/CKgBcE6WLZk2tdYmhGznVsg5qSTEGuUKrohUga42MnZ5ZLuWLR1g2SkbIp3QKEbNt2XVfTtEylb/+ifOjt8TvWoKAyKIAyxnq9ntf3Ykn3M/yWiPFmu99o9nwvDEMehKzR6bZ7fS9kctIdaJpGKVX9O6TAcPI/jBFJDVFMkGrjof18ebAhZ+Qygz0xySSlZc6YCapkBZ/0h33fD8OAMS7k0mfoNOc4mtTqJQhijDSC9PSJXKhwugS6rlkquoWiY1m6GqZV7zBC0DAMy7IsW+HyBuKx912UD739SBxrJO9I9o/CMPIlCTrLaD+yrmEYxr2+3+2GvXR1i6QCMA8i1un2ev1+pCB5iulO1gioppNM6G0EB6c0MQd0ewPyo/3yfprxxSyKGJPERbJGEatUESSJqem6rksq2/Q1aLYgYcl3ooSVIMHItvV8wckX7Fze1jQChxQoAFAJi00/DGPYYH7LG/7j4FLKflSOpSwZfdkhI62I4zAMPd+PQlkcV8omMgpnLPb9sNcLev3Q80L1LVG6YbEoikMWhrIWH7BQcNWnzv5IMZzDTgYt4xEyLXU9CSaUUpp6BMIq9sqmuIBkLJbzezK5k2sTJBSZpuFYhu0Yrms5rkUIHvxdEn5Dia5rpmHqhoFRlui9Rdb7x8eZRu0xB+9va2/x5/0wLD03WRmX7RjVhEkGgKMEKOLGIIwCn6WP8lPi4xUNn4yj5PBPRgCZKBmS4QsN5E/gIJaXXRoA1XRGurKQdJtL81PDSPde06SGoRlG+kil7PhQ3gxCmPolJVIjWtM1TWamyb5Mz779eDrTqH0QHEvZD241JKPHIt2rGFcYGC4tHsyKwUEPLBZJzLLG86CUChThbDYRdv+LDiHjA2CV0jfMkK2qLj8AHarJ4zSMk1gHBW6QrCaEADii/jjEK4L3puT44bIf7Vb48Hbfqb0dwb0sTWWTEFkQnq1UyUBUc0TSAoyU0ODgyQAGOvQthcfPYihlSjlnpGrx1kLm/yuu886W3qofBsf6QfagpC8cpeK+n7B8ZHhKsYkkDzqI0kd4238ZkLuNvO6oHTrTg/bB2QrfpSVv3XXe9maB97XxB7MH73RTHTrNQezAHKQfNIM/IEx7wC1G5OFGv/pOP3JoB7RH4nn/sNvoogYf2CsP7b21x8Td8EEy+JaDQ3vv7SFl5Q7t0B7NfqjC6qEd2kHsYRRWD+3QHtkOHevQ3hc7dKxDe1/s0LEO7X0wSU0AwQi916Ed2rs05UhoFBZ76FuH9i5tMMqmNOVHWC1/1Cd2aB9iG/Ue8pYvH/rWoR3chm2y/xsAAP//tTQu6gr7mn4AAAAASUVORK5CYII=;" vertex="1" parent="1">
          <mxGeometry x="420.38" y="200.38" width="47.25" height="47.25" as="geometry" />
        </mxCell>
      </root>
    </mxGraphModel>
  </diagram>
</mxfile>
